<?xml version="1.0" encoding="UTF-8" standalone="no"?>
<svg height="60px" viewBox="0 0 61 77" version="1.1" xmlns="http://www.w3.org/2000/svg" xmlns:xlink="http://www.w3.org/1999/xlink">
    <!-- Generator: Sketch 41.2 (35397) - http://www.bohemiancoding.com/sketch -->
    <title>lahacks</title>
    <desc>Created with Sketch.</desc>
    <defs></defs>
    <g id="Page-1" stroke="none" stroke-width="1" fill="none" fill-rule="evenodd">
        <g id="Artboard" transform="translate(-100.000000, -35.000000)" fill="#4A4A4A">
            <g id="lahacks" transform="translate(100.000000, 35.000000)">
                <g id="Layer_1">
                    <g id="Group">
                        <g id="Shape">
                            <path d="M0.000253112033,56.2641173 C0.000253112033,70.4375708 0.007593361,70.4375708 13.9733029,70.4375708 L22.3538423,70.4375708 L36.688083,70.4375708 C37.088,70.4375708 37.4145145,70.1199472 37.420083,69.7246766 L37.420083,67.9699566 L37.420083,56.7523632 L37.420083,49.2032729 C37.420083,48.1272725 37.420083,48.1272725 36.5959502,47.7717049 L24.1820705,42.0630226 C23.1387427,41.6074437 23.1387427,41.6074437 23.1387427,42.7171162 L23.1387427,53.3519808 C23.1387427,56.2422556 23.1387427,56.2422556 18.8958257,56.2422556 C14.3760041,56.2422556 14.3987842,56.2422556 14.3987842,53.3519808 L14.3987842,20.7430366 L14.3987842,7.06310599 C14.3987842,5.46342858 6.57838174,0 2.18663485,0 C0.00734024896,0 0.0022780083,2.08817457 0,2.42238301 L0,56.2641173 L0.000253112033,56.2641173 Z"></path>
                            <path d="M60.7790332,25.5775 C60.7790332,13.286419 60.8035851,8.79495908 42.0249502,8.79495908 C23.2863071,8.79495908 23.2863071,12.5406065 23.2863071,25.5775 L23.2863071,31.7148737 C23.2863071,32.2327712 23.4513361,32.2493559 23.7077386,32.3682135 L36.5136888,38.4869922 C37.5676473,38.9800125 37.5676473,38.9800125 37.5575228,37.8326473 L37.5575228,25.328477 C37.5575228,23.446607 37.5676473,23.0171618 41.9107967,23.0171618 C46.3078589,23.0171618 46.3574689,23.446607 46.3574689,25.2794765 L46.3574689,70.2792616 C46.3574689,71.7821944 46.3574689,71.7821944 46.7773817,72.3015996 C50.4171328,75.0212522 53.3046349,76.8357779 58.5589876,76.8357779 C60.7790332,76.8357779 60.7790332,75.0280369 60.7790332,75.0280369 L60.7790332,25.5775 Z"></path>
                        </g>
                    </g>
                </g>
            </g>
        </g>
    </g>
</svg>