<?xml version="1.0" encoding="UTF-8" standalone="no"?>
<svg width="866px" height="700px" viewBox="0 0 866 700" version="1.1" xmlns="http://www.w3.org/2000/svg" xmlns:xlink="http://www.w3.org/1999/xlink">
    <!-- Generator: Sketch 41.2 (35397) - http://www.bohemiancoding.com/sketch -->
    <title>Group 3</title>
    <desc>Created with Sketch.</desc>
    <defs></defs>
    <g id="Page-1" stroke="none" stroke-width="1" fill="none" fill-rule="evenodd">
        <g id="Artboard" transform="translate(-474.000000, -186.000000)">
            <g id="Group-3" transform="translate(473.000000, 186.000000)">
                <g id="Group" opacity="0.15" transform="translate(777.000000, 120.000000)">
                    <g id="Group-2" fill="#FFFFFF">
                        <rect id="Rectangle" x="0" y="0.508379888" width="25.8677308" height="90.194802" rx="3.63789474"></rect>
                        <rect id="Rectangle" transform="translate(44.855746, 77.699637) rotate(90.000000) translate(-44.855746, -77.699637) " x="31.9218805" y="32.6022358" width="25.8677308" height="90.194802" rx="3.63789474"></rect>
                        <rect id="Rectangle" x="63.843761" y="0.508379888" width="25.8677308" height="90.194802" rx="3.63789474"></rect>
                        <rect id="Rectangle" transform="translate(44.855746, 13.511925) rotate(90.000000) translate(-44.855746, -13.511925) " x="31.9218805" y="-31.5854761" width="25.8677308" height="90.194802" rx="3.63789474"></rect>
                    </g>
                    <rect id="Rectangle-3" x="24.7031644" y="25.3446297" width="40.305163" height="40.5223024" rx="1.58155932"></rect>
                </g>
                <g id="Group" opacity="0.15" transform="translate(777.000000, 240.000000)">
                    <g id="Group-2" fill="#FFFFFF">
                        <rect id="Rectangle" x="0" y="0.508379888" width="25.8677308" height="90.194802" rx="3.63789474"></rect>
                        <rect id="Rectangle" transform="translate(44.855746, 77.699637) rotate(90.000000) translate(-44.855746, -77.699637) " x="31.9218805" y="32.6022358" width="25.8677308" height="90.194802" rx="3.63789474"></rect>
                        <rect id="Rectangle" x="63.843761" y="0.508379888" width="25.8677308" height="90.194802" rx="3.63789474"></rect>
                        <rect id="Rectangle" transform="translate(44.855746, 13.511925) rotate(90.000000) translate(-44.855746, -13.511925) " x="31.9218805" y="-31.5854761" width="25.8677308" height="90.194802" rx="3.63789474"></rect>
                    </g>
                    <rect id="Rectangle-3" x="24.7031644" y="25.3446297" width="40.305163" height="40.5223024" rx="1.58155932"></rect>
                </g>
                <g id="Group" opacity="0.15" transform="translate(777.000000, 360.000000)">
                    <g id="Group-2" fill="#FFFFFF">
                        <rect id="Rectangle" x="0" y="0.508379888" width="25.8677308" height="90.194802" rx="3.63789474"></rect>
                        <rect id="Rectangle" transform="translate(44.855746, 77.699637) rotate(90.000000) translate(-44.855746, -77.699637) " x="31.9218805" y="32.6022358" width="25.8677308" height="90.194802" rx="3.63789474"></rect>
                        <rect id="Rectangle" x="63.843761" y="0.508379888" width="25.8677308" height="90.194802" rx="3.63789474"></rect>
                        <rect id="Rectangle" transform="translate(44.855746, 13.511925) rotate(90.000000) translate(-44.855746, -13.511925) " x="31.9218805" y="-31.5854761" width="25.8677308" height="90.194802" rx="3.63789474"></rect>
                    </g>
                    <rect id="Rectangle-3" x="24.7031644" y="25.3446297" width="40.305163" height="40.5223024" rx="1.58155932"></rect>
                </g>
                <g id="Group" opacity="0.15" transform="translate(777.000000, 480.000000)">
                    <g id="Group-2" fill="#FFFFFF">
                        <rect id="Rectangle" x="0" y="0.508379888" width="25.8677308" height="90.194802" rx="3.63789474"></rect>
                        <rect id="Rectangle" transform="translate(44.855746, 77.699637) rotate(90.000000) translate(-44.855746, -77.699637) " x="31.9218805" y="32.6022358" width="25.8677308" height="90.194802" rx="3.63789474"></rect>
                        <rect id="Rectangle" x="63.843761" y="0.508379888" width="25.8677308" height="90.194802" rx="3.63789474"></rect>
                        <rect id="Rectangle" transform="translate(44.855746, 13.511925) rotate(90.000000) translate(-44.855746, -13.511925) " x="31.9218805" y="-31.5854761" width="25.8677308" height="90.194802" rx="3.63789474"></rect>
                    </g>
                    <rect id="Rectangle-3" x="24.7031644" y="25.3446297" width="40.305163" height="40.5223024" rx="1.58155932"></rect>
                </g>
                <g id="Group" opacity="0.15" transform="translate(777.000000, 600.000000)">
                    <g id="Group-2" fill="#FFFFFF">
                        <rect id="Rectangle" x="0" y="0.508379888" width="25.8677308" height="90.194802" rx="3.63789474"></rect>
                        <rect id="Rectangle" transform="translate(44.855746, 77.699637) rotate(90.000000) translate(-44.855746, -77.699637) " x="31.9218805" y="32.6022358" width="25.8677308" height="90.194802" rx="3.63789474"></rect>
                        <rect id="Rectangle" x="63.843761" y="0.508379888" width="25.8677308" height="90.194802" rx="3.63789474"></rect>
                        <rect id="Rectangle" transform="translate(44.855746, 13.511925) rotate(90.000000) translate(-44.855746, -13.511925) " x="31.9218805" y="-31.5854761" width="25.8677308" height="90.194802" rx="3.63789474"></rect>
                    </g>
                    <rect id="Rectangle-3" x="24.7031644" y="25.3446297" width="40.305163" height="40.5223024" rx="1.58155932"></rect>
                </g>
                <g id="Group" opacity="0.15" transform="translate(777.000000, 0.000000)">
                    <g id="Group-2" fill="#FFFFFF">
                        <rect id="Rectangle" x="0" y="0.508379888" width="25.8677308" height="90.194802" rx="3.63789474"></rect>
                        <rect id="Rectangle" transform="translate(44.855746, 77.699637) rotate(90.000000) translate(-44.855746, -77.699637) " x="31.9218805" y="32.6022358" width="25.8677308" height="90.194802" rx="3.63789474"></rect>
                        <rect id="Rectangle" x="63.843761" y="0.508379888" width="25.8677308" height="90.194802" rx="3.63789474"></rect>
                        <rect id="Rectangle" transform="translate(44.855746, 13.511925) rotate(90.000000) translate(-44.855746, -13.511925) " x="31.9218805" y="-31.5854761" width="25.8677308" height="90.194802" rx="3.63789474"></rect>
                    </g>
                    <rect id="Rectangle-3" x="24.7031644" y="25.3446297" width="40.305163" height="40.5223024" rx="1.58155932"></rect>
                </g>
                <g id="Group" opacity="0.2" transform="translate(658.000000, 120.000000)">
                    <g id="Group-2" fill="#FFFFFF">
                        <rect id="Rectangle" x="0" y="0.508379888" width="25.8677308" height="90.194802" rx="3.63789474"></rect>
                        <rect id="Rectangle" transform="translate(44.855746, 77.699637) rotate(90.000000) translate(-44.855746, -77.699637) " x="31.9218805" y="32.6022358" width="25.8677308" height="90.194802" rx="3.63789474"></rect>
                        <rect id="Rectangle" x="63.843761" y="0.508379888" width="25.8677308" height="90.194802" rx="3.63789474"></rect>
                        <rect id="Rectangle" transform="translate(44.855746, 13.511925) rotate(90.000000) translate(-44.855746, -13.511925) " x="31.9218805" y="-31.5854761" width="25.8677308" height="90.194802" rx="3.63789474"></rect>
                    </g>
                    <rect id="Rectangle-3" x="24.7031644" y="25.3446297" width="40.305163" height="40.5223024" rx="1.58155932"></rect>
                </g>
                <g id="Group" opacity="0.2" transform="translate(658.000000, 240.000000)">
                    <g id="Group-2" fill="#FFFFFF">
                        <rect id="Rectangle" x="0" y="0.508379888" width="25.8677308" height="90.194802" rx="3.63789474"></rect>
                        <rect id="Rectangle" transform="translate(44.855746, 77.699637) rotate(90.000000) translate(-44.855746, -77.699637) " x="31.9218805" y="32.6022358" width="25.8677308" height="90.194802" rx="3.63789474"></rect>
                        <rect id="Rectangle" x="63.843761" y="0.508379888" width="25.8677308" height="90.194802" rx="3.63789474"></rect>
                        <rect id="Rectangle" transform="translate(44.855746, 13.511925) rotate(90.000000) translate(-44.855746, -13.511925) " x="31.9218805" y="-31.5854761" width="25.8677308" height="90.194802" rx="3.63789474"></rect>
                    </g>
                    <rect id="Rectangle-3" x="24.7031644" y="25.3446297" width="40.305163" height="40.5223024" rx="1.58155932"></rect>
                </g>
                <g id="Group" opacity="0.2" transform="translate(658.000000, 360.000000)">
                    <g id="Group-2" fill="#FFFFFF">
                        <rect id="Rectangle" x="0" y="0.508379888" width="25.8677308" height="90.194802" rx="3.63789474"></rect>
                        <rect id="Rectangle" transform="translate(44.855746, 77.699637) rotate(90.000000) translate(-44.855746, -77.699637) " x="31.9218805" y="32.6022358" width="25.8677308" height="90.194802" rx="3.63789474"></rect>
                        <rect id="Rectangle" x="63.843761" y="0.508379888" width="25.8677308" height="90.194802" rx="3.63789474"></rect>
                        <rect id="Rectangle" transform="translate(44.855746, 13.511925) rotate(90.000000) translate(-44.855746, -13.511925) " x="31.9218805" y="-31.5854761" width="25.8677308" height="90.194802" rx="3.63789474"></rect>
                    </g>
                    <rect id="Rectangle-3" x="24.7031644" y="25.3446297" width="40.305163" height="40.5223024" rx="1.58155932"></rect>
                </g>
                <g id="Group" opacity="0.2" transform="translate(658.000000, 480.000000)">
                    <g id="Group-2" fill="#FFFFFF">
                        <rect id="Rectangle" x="0" y="0.508379888" width="25.8677308" height="90.194802" rx="3.63789474"></rect>
                        <rect id="Rectangle" transform="translate(44.855746, 77.699637) rotate(90.000000) translate(-44.855746, -77.699637) " x="31.9218805" y="32.6022358" width="25.8677308" height="90.194802" rx="3.63789474"></rect>
                        <rect id="Rectangle" x="63.843761" y="0.508379888" width="25.8677308" height="90.194802" rx="3.63789474"></rect>
                        <rect id="Rectangle" transform="translate(44.855746, 13.511925) rotate(90.000000) translate(-44.855746, -13.511925) " x="31.9218805" y="-31.5854761" width="25.8677308" height="90.194802" rx="3.63789474"></rect>
                    </g>
                    <rect id="Rectangle-3" x="24.7031644" y="25.3446297" width="40.305163" height="40.5223024" rx="1.58155932"></rect>
                </g>
                <g id="Group" opacity="0.2" transform="translate(658.000000, 600.000000)">
                    <g id="Group-2" fill="#FFFFFF">
                        <rect id="Rectangle" x="0" y="0.508379888" width="25.8677308" height="90.194802" rx="3.63789474"></rect>
                        <rect id="Rectangle" transform="translate(44.855746, 77.699637) rotate(90.000000) translate(-44.855746, -77.699637) " x="31.9218805" y="32.6022358" width="25.8677308" height="90.194802" rx="3.63789474"></rect>
                        <rect id="Rectangle" x="63.843761" y="0.508379888" width="25.8677308" height="90.194802" rx="3.63789474"></rect>
                        <rect id="Rectangle" transform="translate(44.855746, 13.511925) rotate(90.000000) translate(-44.855746, -13.511925) " x="31.9218805" y="-31.5854761" width="25.8677308" height="90.194802" rx="3.63789474"></rect>
                    </g>
                    <rect id="Rectangle-3" x="24.7031644" y="25.3446297" width="40.305163" height="40.5223024" rx="1.58155932"></rect>
                </g>
                <g id="Group" opacity="0.2" transform="translate(658.000000, 0.000000)">
                    <g id="Group-2" fill="#FFFFFF">
                        <rect id="Rectangle" x="0" y="0.508379888" width="25.8677308" height="90.194802" rx="3.63789474"></rect>
                        <rect id="Rectangle" transform="translate(44.855746, 77.699637) rotate(90.000000) translate(-44.855746, -77.699637) " x="31.9218805" y="32.6022358" width="25.8677308" height="90.194802" rx="3.63789474"></rect>
                        <rect id="Rectangle" x="63.843761" y="0.508379888" width="25.8677308" height="90.194802" rx="3.63789474"></rect>
                        <rect id="Rectangle" transform="translate(44.855746, 13.511925) rotate(90.000000) translate(-44.855746, -13.511925) " x="31.9218805" y="-31.5854761" width="25.8677308" height="90.194802" rx="3.63789474"></rect>
                    </g>
                    <rect id="Rectangle-3" x="24.7031644" y="25.3446297" width="40.305163" height="40.5223024" rx="1.58155932"></rect>
                </g>
                <g id="Group" opacity="0.4" transform="translate(538.000000, 120.000000)">
                    <g id="Group-2" fill="#FFFFFF">
                        <rect id="Rectangle" x="0" y="0.508379888" width="25.8677308" height="90.194802" rx="3.63789474"></rect>
                        <rect id="Rectangle" transform="translate(44.855746, 77.699637) rotate(90.000000) translate(-44.855746, -77.699637) " x="31.9218805" y="32.6022358" width="25.8677308" height="90.194802" rx="3.63789474"></rect>
                        <rect id="Rectangle" x="63.843761" y="0.508379888" width="25.8677308" height="90.194802" rx="3.63789474"></rect>
                        <rect id="Rectangle" transform="translate(44.855746, 13.511925) rotate(90.000000) translate(-44.855746, -13.511925) " x="31.9218805" y="-31.5854761" width="25.8677308" height="90.194802" rx="3.63789474"></rect>
                    </g>
                    <rect id="Rectangle-3" x="24.7031644" y="25.3446297" width="40.305163" height="40.5223024" rx="1.58155932"></rect>
                </g>
                <g id="Group" opacity="0.4" transform="translate(538.000000, 240.000000)">
                    <g id="Group-2" fill="#FFFFFF">
                        <rect id="Rectangle" x="0" y="0.508379888" width="25.8677308" height="90.194802" rx="3.63789474"></rect>
                        <rect id="Rectangle" transform="translate(44.855746, 77.699637) rotate(90.000000) translate(-44.855746, -77.699637) " x="31.9218805" y="32.6022358" width="25.8677308" height="90.194802" rx="3.63789474"></rect>
                        <rect id="Rectangle" x="63.843761" y="0.508379888" width="25.8677308" height="90.194802" rx="3.63789474"></rect>
                        <rect id="Rectangle" transform="translate(44.855746, 13.511925) rotate(90.000000) translate(-44.855746, -13.511925) " x="31.9218805" y="-31.5854761" width="25.8677308" height="90.194802" rx="3.63789474"></rect>
                    </g>
                    <rect id="Rectangle-3" x="24.7031644" y="25.3446297" width="40.305163" height="40.5223024" rx="1.58155932"></rect>
                </g>
                <g id="Group" opacity="0.4" transform="translate(538.000000, 360.000000)">
                    <g id="Group-2" fill="#FFFFFF">
                        <rect id="Rectangle" x="0" y="0.508379888" width="25.8677308" height="90.194802" rx="3.63789474"></rect>
                        <rect id="Rectangle" transform="translate(44.855746, 77.699637) rotate(90.000000) translate(-44.855746, -77.699637) " x="31.9218805" y="32.6022358" width="25.8677308" height="90.194802" rx="3.63789474"></rect>
                        <rect id="Rectangle" x="63.843761" y="0.508379888" width="25.8677308" height="90.194802" rx="3.63789474"></rect>
                        <rect id="Rectangle" transform="translate(44.855746, 13.511925) rotate(90.000000) translate(-44.855746, -13.511925) " x="31.9218805" y="-31.5854761" width="25.8677308" height="90.194802" rx="3.63789474"></rect>
                    </g>
                    <rect id="Rectangle-3" x="24.7031644" y="25.3446297" width="40.305163" height="40.5223024" rx="1.58155932"></rect>
                </g>
                <g id="Group" opacity="0.4" transform="translate(538.000000, 480.000000)">
                    <g id="Group-2" fill="#FFFFFF">
                        <rect id="Rectangle" x="0" y="0.508379888" width="25.8677308" height="90.194802" rx="3.63789474"></rect>
                        <rect id="Rectangle" transform="translate(44.855746, 77.699637) rotate(90.000000) translate(-44.855746, -77.699637) " x="31.9218805" y="32.6022358" width="25.8677308" height="90.194802" rx="3.63789474"></rect>
                        <rect id="Rectangle" x="63.843761" y="0.508379888" width="25.8677308" height="90.194802" rx="3.63789474"></rect>
                        <rect id="Rectangle" transform="translate(44.855746, 13.511925) rotate(90.000000) translate(-44.855746, -13.511925) " x="31.9218805" y="-31.5854761" width="25.8677308" height="90.194802" rx="3.63789474"></rect>
                    </g>
                    <rect id="Rectangle-3" x="24.7031644" y="25.3446297" width="40.305163" height="40.5223024" rx="1.58155932"></rect>
                </g>
                <g id="Group" opacity="0.4" transform="translate(538.000000, 600.000000)">
                    <g id="Group-2" fill="#FFFFFF">
                        <rect id="Rectangle" x="0" y="0.508379888" width="25.8677308" height="90.194802" rx="3.63789474"></rect>
                        <rect id="Rectangle" transform="translate(44.855746, 77.699637) rotate(90.000000) translate(-44.855746, -77.699637) " x="31.9218805" y="32.6022358" width="25.8677308" height="90.194802" rx="3.63789474"></rect>
                        <rect id="Rectangle" x="63.843761" y="0.508379888" width="25.8677308" height="90.194802" rx="3.63789474"></rect>
                        <rect id="Rectangle" transform="translate(44.855746, 13.511925) rotate(90.000000) translate(-44.855746, -13.511925) " x="31.9218805" y="-31.5854761" width="25.8677308" height="90.194802" rx="3.63789474"></rect>
                    </g>
                    <rect id="Rectangle-3" x="24.7031644" y="25.3446297" width="40.305163" height="40.5223024" rx="1.58155932"></rect>
                </g>
                <g id="Group" opacity="0.4" transform="translate(538.000000, 0.000000)">
                    <g id="Group-2" fill="#FFFFFF">
                        <rect id="Rectangle" x="0" y="0.508379888" width="25.8677308" height="90.194802" rx="3.63789474"></rect>
                        <rect id="Rectangle" transform="translate(44.855746, 77.699637) rotate(90.000000) translate(-44.855746, -77.699637) " x="31.9218805" y="32.6022358" width="25.8677308" height="90.194802" rx="3.63789474"></rect>
                        <rect id="Rectangle" x="63.843761" y="0.508379888" width="25.8677308" height="90.194802" rx="3.63789474"></rect>
                        <rect id="Rectangle" transform="translate(44.855746, 13.511925) rotate(90.000000) translate(-44.855746, -13.511925) " x="31.9218805" y="-31.5854761" width="25.8677308" height="90.194802" rx="3.63789474"></rect>
                    </g>
                    <rect id="Rectangle-3" x="24.7031644" y="25.3446297" width="40.305163" height="40.5223024" rx="1.58155932"></rect>
                </g>
                <g id="Group" opacity="0.5" transform="translate(419.000000, 360.000000)">
                    <g id="Group-2" fill="#FFFFFF">
                        <rect id="Rectangle" x="0" y="0.508379888" width="25.8677308" height="90.194802" rx="3.63789474"></rect>
                        <rect id="Rectangle" transform="translate(44.855746, 77.699637) rotate(90.000000) translate(-44.855746, -77.699637) " x="31.9218805" y="32.6022358" width="25.8677308" height="90.194802" rx="3.63789474"></rect>
                        <rect id="Rectangle" x="63.843761" y="0.508379888" width="25.8677308" height="90.194802" rx="3.63789474"></rect>
                        <rect id="Rectangle" transform="translate(44.855746, 13.511925) rotate(90.000000) translate(-44.855746, -13.511925) " x="31.9218805" y="-31.5854761" width="25.8677308" height="90.194802" rx="3.63789474"></rect>
                    </g>
                    <rect id="Rectangle-3" x="24.7031644" y="25.3446297" width="40.305163" height="40.5223024" rx="1.58155932"></rect>
                </g>
                <g id="Group" opacity="0.5" transform="translate(419.000000, 480.000000)">
                    <g id="Group-2" fill="#FFFFFF">
                        <rect id="Rectangle" x="0" y="0.508379888" width="25.8677308" height="90.194802" rx="3.63789474"></rect>
                        <rect id="Rectangle" transform="translate(44.855746, 77.699637) rotate(90.000000) translate(-44.855746, -77.699637) " x="31.9218805" y="32.6022358" width="25.8677308" height="90.194802" rx="3.63789474"></rect>
                        <rect id="Rectangle" x="63.843761" y="0.508379888" width="25.8677308" height="90.194802" rx="3.63789474"></rect>
                        <rect id="Rectangle" transform="translate(44.855746, 13.511925) rotate(90.000000) translate(-44.855746, -13.511925) " x="31.9218805" y="-31.5854761" width="25.8677308" height="90.194802" rx="3.63789474"></rect>
                    </g>
                    <rect id="Rectangle-3" x="24.7031644" y="25.3446297" width="40.305163" height="40.5223024" rx="1.58155932"></rect>
                </g>
                <g id="Group" opacity="0.5" transform="translate(419.000000, 645.500000) rotate(-15.000000) translate(-419.000000, -645.500000) translate(374.000000, 600.000000)">
                    <g id="Group-2" fill="#FFFFFF">
                        <rect id="Rectangle" x="0" y="0.508379888" width="25.8677308" height="90.194802" rx="3.63789474"></rect>
                        <rect id="Rectangle" transform="translate(44.855746, 77.699637) rotate(90.000000) translate(-44.855746, -77.699637) " x="31.9218805" y="32.6022358" width="25.8677308" height="90.194802" rx="3.63789474"></rect>
                        <rect id="Rectangle" x="63.843761" y="0.508379888" width="25.8677308" height="90.194802" rx="3.63789474"></rect>
                        <rect id="Rectangle" transform="translate(44.855746, 13.511925) rotate(90.000000) translate(-44.855746, -13.511925) " x="31.9218805" y="-31.5854761" width="25.8677308" height="90.194802" rx="3.63789474"></rect>
                    </g>
                    <rect id="Rectangle-3" x="24.7031644" y="25.3446297" width="40.305163" height="40.5223024" rx="1.58155932"></rect>
                </g>
                <g id="Group" opacity="0.5" transform="translate(419.000000, 0.000000)">
                    <g id="Group-2" fill="#FFFFFF">
                        <rect id="Rectangle" x="0" y="0.508379888" width="25.8677308" height="90.194802" rx="3.63789474"></rect>
                        <rect id="Rectangle" transform="translate(44.855746, 77.699637) rotate(90.000000) translate(-44.855746, -77.699637) " x="31.9218805" y="32.6022358" width="25.8677308" height="90.194802" rx="3.63789474"></rect>
                        <rect id="Rectangle" x="63.843761" y="0.508379888" width="25.8677308" height="90.194802" rx="3.63789474"></rect>
                        <rect id="Rectangle" transform="translate(44.855746, 13.511925) rotate(90.000000) translate(-44.855746, -13.511925) " x="31.9218805" y="-31.5854761" width="25.8677308" height="90.194802" rx="3.63789474"></rect>
                    </g>
                    <rect id="Rectangle-3" x="24.7031644" y="25.3446297" width="40.305163" height="40.5223024" rx="1.58155932"></rect>
                </g>
                <g id="Group" opacity="0.8" transform="translate(62.000000, 285.500000) rotate(30.000000) translate(-62.000000, -285.500000) translate(17.000000, 240.000000)">
                    <g id="Group-2" fill="#FFFFFF">
                        <rect id="Rectangle" x="0" y="0.508379888" width="25.8677308" height="90.194802" rx="3.63789474"></rect>
                        <rect id="Rectangle" transform="translate(44.855746, 77.699637) rotate(90.000000) translate(-44.855746, -77.699637) " x="31.9218805" y="32.6022358" width="25.8677308" height="90.194802" rx="3.63789474"></rect>
                        <rect id="Rectangle" x="63.843761" y="0.508379888" width="25.8677308" height="90.194802" rx="3.63789474"></rect>
                        <rect id="Rectangle" transform="translate(44.855746, 13.511925) rotate(90.000000) translate(-44.855746, -13.511925) " x="31.9218805" y="-31.5854761" width="25.8677308" height="90.194802" rx="3.63789474"></rect>
                    </g>
                    <rect id="Rectangle-3" x="24.7031644" y="25.3446297" width="40.305163" height="40.5223024" rx="1.58155932"></rect>
                </g>
                <g id="Group" opacity="0.8" transform="translate(289.721143, 165.904156) rotate(-30.000000) translate(-289.721143, -165.904156) translate(244.721143, 120.404156)">
                    <g id="Group-2" fill="#FFFFFF">
                        <rect id="Rectangle" x="0" y="0.508379888" width="25.8677308" height="90.194802" rx="3.63789474"></rect>
                        <rect id="Rectangle" transform="translate(44.855746, 77.699637) rotate(90.000000) translate(-44.855746, -77.699637) " x="31.9218805" y="32.6022358" width="25.8677308" height="90.194802" rx="3.63789474"></rect>
                        <rect id="Rectangle" x="63.843761" y="0.508379888" width="25.8677308" height="90.194802" rx="3.63789474"></rect>
                        <rect id="Rectangle" transform="translate(44.855746, 13.511925) rotate(90.000000) translate(-44.855746, -13.511925) " x="31.9218805" y="-31.5854761" width="25.8677308" height="90.194802" rx="3.63789474"></rect>
                    </g>
                    <rect id="Rectangle-3" x="24.7031644" y="25.3446297" width="40.305163" height="40.5223024" rx="1.58155932"></rect>
                </g>
            </g>
        </g>
    </g>
</svg>