<?xml version="1.0" encoding="UTF-8" standalone="no"?>
<svg width="328px" height="690px" viewBox="0 0 328 690" version="1.1" xmlns="http://www.w3.org/2000/svg" xmlns:xlink="http://www.w3.org/1999/xlink">
    <!-- Generator: Sketch 41.2 (35397) - http://www.bohemiancoding.com/sketch -->
    <title>Group 8</title>
    <desc>Created with Sketch.</desc>
    <defs></defs>
    <g id="Page-1" stroke="none" stroke-width="1" fill="none" fill-rule="evenodd">
        <g id="Artboard" transform="translate(-1290.000000, -2101.000000)">
            <g id="Group-5" transform="translate(338.000000, 264.000000)">
                <g id="Group-4" transform="translate(0.000000, 1236.000000)">
                    <g id="Group-3">
                        <g id="Group-8" transform="translate(952.000000, 600.000000)">
                            <g id="second-green" transform="translate(119.000000, 360.000000)">
                                <g id="Group-2"></g>
                            </g>
                            <g id="Group" opacity="0.17" transform="translate(119.000000, 120.000000)">
                                <g id="Group-2" fill="#9B9B9B">
                                    <rect id="Rectangle" x="0" y="1" width="25.9509202" height="89.9932812" rx="7.2"></rect>
                                    <rect id="Rectangle" transform="translate(45.000000, 78.018790) rotate(90.000000) translate(-45.000000, -78.018790) " x="32.0245399" y="33.0221491" width="25.9509202" height="89.9932812" rx="7.2"></rect>
                                    <rect id="Rectangle" x="64.0490798" y="1" width="25.9509202" height="89.9932812" rx="7.2"></rect>
                                    <rect id="Rectangle" transform="translate(45.000000, 13.974491) rotate(90.000000) translate(-45.000000, -13.974491) " x="32.0245399" y="-31.0221491" width="25.9509202" height="89.9932812" rx="7.2"></rect>
                                </g>
                                <rect id="Rectangle-3" fill="#FFFFFF" x="24.7826087" y="25.7807586" width="40.4347826" height="40.431764" rx="3.13016949"></rect>
                            </g>
                            <g id="Group" opacity="0.17" transform="translate(119.000000, 0.000000)">
                                <g id="Group-2" fill="#9B9B9B">
                                    <rect id="Rectangle" x="0" y="1" width="25.9509202" height="89.9932812" rx="7.2"></rect>
                                    <rect id="Rectangle" transform="translate(45.000000, 78.018790) rotate(90.000000) translate(-45.000000, -78.018790) " x="32.0245399" y="33.0221491" width="25.9509202" height="89.9932812" rx="7.2"></rect>
                                    <rect id="Rectangle" x="64.0490798" y="1" width="25.9509202" height="89.9932812" rx="7.2"></rect>
                                    <rect id="Rectangle" transform="translate(45.000000, 13.974491) rotate(90.000000) translate(-45.000000, -13.974491) " x="32.0245399" y="-31.0221491" width="25.9509202" height="89.9932812" rx="7.2"></rect>
                                </g>
                                <rect id="Rectangle-3" fill="#FFFFFF" x="24.7826087" y="25.7807586" width="40.4347826" height="40.431764" rx="3.13016949"></rect>
                            </g>
                            <g id="Group" transform="translate(119.000000, 600.000000)">
                                <g id="Group-2" fill="#FD5C63">
                                    <rect id="Rectangle" x="0" y="1" width="25.9509202" height="89.9932812" rx="7.2"></rect>
                                    <rect id="Rectangle" transform="translate(45.000000, 78.018790) rotate(90.000000) translate(-45.000000, -78.018790) " x="32.0245399" y="33.0221491" width="25.9509202" height="89.9932812" rx="7.2"></rect>
                                    <rect id="Rectangle" x="64.0490798" y="1" width="25.9509202" height="89.9932812" rx="7.2"></rect>
                                    <rect id="Rectangle" transform="translate(45.000000, 13.974491) rotate(90.000000) translate(-45.000000, -13.974491) " x="32.0245399" y="-31.0221491" width="25.9509202" height="89.9932812" rx="7.2"></rect>
                                </g>
                                <rect id="Rectangle-3" fill="#FFFFFF" x="24.7826087" y="25.7807586" width="40.4347826" height="40.431764" rx="3.13016949"></rect>
                            </g>
                            <rect id="Rectangle" fill="#66BFBF" x="119" y="361" width="25.9509202" height="89.9932812" rx="7.2"></rect>
                            <rect id="Rectangle" fill="#66BFBF" transform="translate(164.000000, 438.018790) rotate(90.000000) translate(-164.000000, -438.018790) " x="151.02454" y="393.022149" width="25.9509202" height="89.9932812" rx="7.2"></rect>
                            <rect id="Rectangle" fill="#66BFBF" x="183.04908" y="361" width="25.9509202" height="89.9932812" rx="7.2"></rect>
                            <rect id="Rectangle" fill="#66BFBF" transform="translate(164.000000, 373.974491) rotate(90.000000) translate(-164.000000, -373.974491) " x="151.02454" y="328.977851" width="25.9509202" height="89.9932812" rx="7.2"></rect>
                            <rect id="Rectangle-3" fill="#FFFFFF" x="143.782609" y="385.780759" width="40.4347826" height="40.431764" rx="3.13016949"></rect>
                            <g id="Group" opacity="0.17" transform="translate(238.000000, 120.000000)">
                                <g id="Group-2" fill="#9B9B9B">
                                    <rect id="Rectangle" x="0" y="1" width="25.9509202" height="89.9932812" rx="7.2"></rect>
                                    <rect id="Rectangle" transform="translate(45.000000, 78.018790) rotate(90.000000) translate(-45.000000, -78.018790) " x="32.0245399" y="33.0221491" width="25.9509202" height="89.9932812" rx="7.2"></rect>
                                    <rect id="Rectangle" x="64.0490798" y="1" width="25.9509202" height="89.9932812" rx="7.2"></rect>
                                    <rect id="Rectangle" transform="translate(45.000000, 13.974491) rotate(90.000000) translate(-45.000000, -13.974491) " x="32.0245399" y="-31.0221491" width="25.9509202" height="89.9932812" rx="7.2"></rect>
                                </g>
                                <rect id="Rectangle-3" fill="#FFFFFF" x="24.7826087" y="25.7807586" width="40.4347826" height="40.431764" rx="3.13016949"></rect>
                            </g>
                            <g id="Group" opacity="0.17" transform="translate(238.000000, 0.000000)">
                                <g id="Group-2" fill="#9B9B9B">
                                    <rect id="Rectangle" x="0" y="1" width="25.9509202" height="89.9932812" rx="7.2"></rect>
                                    <rect id="Rectangle" transform="translate(45.000000, 78.018790) rotate(90.000000) translate(-45.000000, -78.018790) " x="32.0245399" y="33.0221491" width="25.9509202" height="89.9932812" rx="7.2"></rect>
                                    <rect id="Rectangle" x="64.0490798" y="1" width="25.9509202" height="89.9932812" rx="7.2"></rect>
                                    <rect id="Rectangle" transform="translate(45.000000, 13.974491) rotate(90.000000) translate(-45.000000, -13.974491) " x="32.0245399" y="-31.0221491" width="25.9509202" height="89.9932812" rx="7.2"></rect>
                                </g>
                                <rect id="Rectangle-3" fill="#FFFFFF" x="24.7826087" y="25.7807586" width="40.4347826" height="40.431764" rx="3.13016949"></rect>
                            </g>
                            <g id="Group">
                                <g id="Group-2" fill="#FFB900">
                                    <rect id="Rectangle" x="0" y="1" width="25.9509202" height="89.9932812" rx="7.2"></rect>
                                    <rect id="Rectangle" transform="translate(45.000000, 78.018790) rotate(90.000000) translate(-45.000000, -78.018790) " x="32.0245399" y="33.0221491" width="25.9509202" height="89.9932812" rx="7.2"></rect>
                                    <rect id="Rectangle" x="64.0490798" y="1" width="25.9509202" height="89.9932812" rx="7.2"></rect>
                                    <rect id="Rectangle" transform="translate(45.000000, 13.974491) rotate(90.000000) translate(-45.000000, -13.974491) " x="32.0245399" y="-31.0221491" width="25.9509202" height="89.9932812" rx="7.2"></rect>
                                </g>
                                <rect id="Rectangle-3" fill="#FFFFFF" x="24.7826087" y="25.7807586" width="40.4347826" height="40.431764" rx="3.13016949"></rect>
                            </g>
                            <g id="Group" opacity="0.17" transform="translate(238.000000, 480.000000)">
                                <g id="Group-2" fill="#9B9B9B">
                                    <rect id="Rectangle" x="0" y="1" width="25.9509202" height="89.9932812" rx="7.2"></rect>
                                    <rect id="Rectangle" transform="translate(45.000000, 78.018790) rotate(90.000000) translate(-45.000000, -78.018790) " x="32.0245399" y="33.0221491" width="25.9509202" height="89.9932812" rx="7.2"></rect>
                                    <rect id="Rectangle" x="64.0490798" y="1" width="25.9509202" height="89.9932812" rx="7.2"></rect>
                                    <rect id="Rectangle" transform="translate(45.000000, 13.974491) rotate(90.000000) translate(-45.000000, -13.974491) " x="32.0245399" y="-31.0221491" width="25.9509202" height="89.9932812" rx="7.2"></rect>
                                </g>
                                <rect id="Rectangle-3" fill="#FFFFFF" x="24.7826087" y="25.7807586" width="40.4347826" height="40.431764" rx="3.13016949"></rect>
                            </g>
                            <g id="Group" opacity="0.17" transform="translate(238.000000, 600.000000)">
                                <g id="Group-2" fill="#9B9B9B">
                                    <rect id="Rectangle" x="0" y="1" width="25.9509202" height="89.9932812" rx="7.2"></rect>
                                    <rect id="Rectangle" transform="translate(45.000000, 78.018790) rotate(90.000000) translate(-45.000000, -78.018790) " x="32.0245399" y="33.0221491" width="25.9509202" height="89.9932812" rx="7.2"></rect>
                                    <rect id="Rectangle" x="64.0490798" y="1" width="25.9509202" height="89.9932812" rx="7.2"></rect>
                                    <rect id="Rectangle" transform="translate(45.000000, 13.974491) rotate(90.000000) translate(-45.000000, -13.974491) " x="32.0245399" y="-31.0221491" width="25.9509202" height="89.9932812" rx="7.2"></rect>
                                </g>
                                <rect id="Rectangle-3" fill="#FFFFFF" x="24.7826087" y="25.7807586" width="40.4347826" height="40.431764" rx="3.13016949"></rect>
                            </g>
                            <g id="Group" opacity="0.17" transform="translate(238.000000, 360.000000)">
                                <g id="Group-2" fill="#9B9B9B">
                                    <rect id="Rectangle" x="0" y="1" width="25.9509202" height="89.9932812" rx="7.2"></rect>
                                    <rect id="Rectangle" transform="translate(45.000000, 78.018790) rotate(90.000000) translate(-45.000000, -78.018790) " x="32.0245399" y="33.0221491" width="25.9509202" height="89.9932812" rx="7.2"></rect>
                                    <rect id="Rectangle" x="64.0490798" y="1" width="25.9509202" height="89.9932812" rx="7.2"></rect>
                                    <rect id="Rectangle" transform="translate(45.000000, 13.974491) rotate(90.000000) translate(-45.000000, -13.974491) " x="32.0245399" y="-31.0221491" width="25.9509202" height="89.9932812" rx="7.2"></rect>
                                </g>
                                <rect id="Rectangle-3" fill="#FFFFFF" x="24.7826087" y="25.7807586" width="40.4347826" height="40.431764" rx="3.13016949"></rect>
                            </g>
                            <g id="Group" opacity="0.17" transform="translate(238.000000, 240.000000)">
                                <g id="Group-2" fill="#9B9B9B">
                                    <rect id="Rectangle" x="0" y="1" width="25.9509202" height="89.9932812" rx="7.2"></rect>
                                    <rect id="Rectangle" transform="translate(45.000000, 78.018790) rotate(90.000000) translate(-45.000000, -78.018790) " x="32.0245399" y="33.0221491" width="25.9509202" height="89.9932812" rx="7.2"></rect>
                                    <rect id="Rectangle" x="64.0490798" y="1" width="25.9509202" height="89.9932812" rx="7.2"></rect>
                                    <rect id="Rectangle" transform="translate(45.000000, 13.974491) rotate(90.000000) translate(-45.000000, -13.974491) " x="32.0245399" y="-31.0221491" width="25.9509202" height="89.9932812" rx="7.2"></rect>
                                </g>
                                <rect id="Rectangle-3" fill="#FFFFFF" x="24.7826087" y="25.7807586" width="40.4347826" height="40.431764" rx="3.13016949"></rect>
                            </g>
                        </g>
                    </g>
                </g>
            </g>
        </g>
    </g>
</svg>