<?xml version="1.0" encoding="UTF-8" standalone="no"?>
<svg height="624px" viewBox="0 0 1440 700" version="1.1" xmlns="http://www.w3.org/2000/svg" xmlns:xlink="http://www.w3.org/1999/xlink">
    <!-- Generator: Sketch 41.2 (35397) - http://www.bohemiancoding.com/sketch -->
    <title>Group 3</title>
    <desc>Created with Sketch.</desc>
    <defs>
        <linearGradient x1="112.93937%" y1="144.38353%" x2="64.1386566%" y2="-26.0866694%" id="linearGradient-1">
            <stop stop-color="#FFB900" offset="0%"></stop>
            <stop stop-color="#FD5C63" offset="100%"></stop>
        </linearGradient>
    </defs>
    <g id="Page-1" stroke="none" stroke-width="1" fill="none" fill-rule="evenodd">
        <g id="Artboard" transform="translate(0.000000, -134.000000)">
            <g id="Group-3" transform="translate(0.000000, 134.000000)">
                <rect id="Rectangle-6" fill="url(#linearGradient-1)" x="0" y="13" width="1439" height="660"></rect>
                <g id="Group" opacity="0.15" transform="translate(1390.000000, 120.000000)">
                    <g id="Group-2" fill="#FFFFFF">
                        <rect id="Rectangle" x="0" y="0.508379888" width="25.8677308" height="90.194802" rx="3.63789474"></rect>
                        <rect id="Rectangle" transform="translate(44.855746, 77.699637) rotate(90.000000) translate(-44.855746, -77.699637) " x="31.9218805" y="32.6022358" width="25.8677308" height="90.194802" rx="3.63789474"></rect>
                        <rect id="Rectangle" transform="translate(44.855746, 13.511925) rotate(90.000000) translate(-44.855746, -13.511925) " x="31.9218805" y="-31.5854761" width="25.8677308" height="90.194802" rx="3.63789474"></rect>
                    </g>
                    <rect id="Rectangle-3" x="24.7031644" y="25.3446297" width="40.305163" height="40.5223024" rx="1.58155932"></rect>
                </g>
                <g id="Group" opacity="0.15" transform="translate(1390.000000, 240.000000)">
                    <g id="Group-2" fill="#FFFFFF">
                        <rect id="Rectangle" x="0" y="0.508379888" width="25.8677308" height="90.194802" rx="3.63789474"></rect>
                        <rect id="Rectangle" transform="translate(44.855746, 77.699637) rotate(90.000000) translate(-44.855746, -77.699637) " x="31.9218805" y="32.6022358" width="25.8677308" height="90.194802" rx="3.63789474"></rect>
                        <rect id="Rectangle" transform="translate(44.855746, 13.511925) rotate(90.000000) translate(-44.855746, -13.511925) " x="31.9218805" y="-31.5854761" width="25.8677308" height="90.194802" rx="3.63789474"></rect>
                    </g>
                    <rect id="Rectangle-3" x="24.7031644" y="25.3446297" width="40.305163" height="40.5223024" rx="1.58155932"></rect>
                </g>
                <g id="Group" opacity="0.15" transform="translate(1390.000000, 360.000000)">
                    <g id="Group-2" fill="#FFFFFF">
                        <rect id="Rectangle" x="0" y="0.508379888" width="25.8677308" height="90.194802" rx="3.63789474"></rect>
                        <rect id="Rectangle" transform="translate(44.855746, 77.699637) rotate(90.000000) translate(-44.855746, -77.699637) " x="31.9218805" y="32.6022358" width="25.8677308" height="90.194802" rx="3.63789474"></rect>
                        <rect id="Rectangle" transform="translate(44.855746, 13.511925) rotate(90.000000) translate(-44.855746, -13.511925) " x="31.9218805" y="-31.5854761" width="25.8677308" height="90.194802" rx="3.63789474"></rect>
                    </g>
                    <rect id="Rectangle-3" x="24.7031644" y="25.3446297" width="40.305163" height="40.5223024" rx="1.58155932"></rect>
                </g>
                <g id="Group" opacity="0.15" transform="translate(1390.000000, 480.000000)">
                    <g id="Group-2" fill="#FFFFFF">
                        <rect id="Rectangle" x="0" y="0.508379888" width="25.8677308" height="90.194802" rx="3.63789474"></rect>
                        <rect id="Rectangle" transform="translate(44.855746, 77.699637) rotate(90.000000) translate(-44.855746, -77.699637) " x="31.9218805" y="32.6022358" width="25.8677308" height="90.194802" rx="3.63789474"></rect>
                        <rect id="Rectangle" transform="translate(44.855746, 13.511925) rotate(90.000000) translate(-44.855746, -13.511925) " x="31.9218805" y="-31.5854761" width="25.8677308" height="90.194802" rx="3.63789474"></rect>
                    </g>
                    <rect id="Rectangle-3" x="24.7031644" y="25.3446297" width="40.305163" height="40.5223024" rx="1.58155932"></rect>
                </g>
                <g id="Group" opacity="0.15" transform="translate(1390.000000, 600.000000)">
                    <g id="Group-2" fill="#FFFFFF">
                        <rect id="Rectangle" x="0" y="0.508379888" width="25.8677308" height="90.194802" rx="3.63789474"></rect>
                        <rect id="Rectangle" transform="translate(44.855746, 77.699637) rotate(90.000000) translate(-44.855746, -77.699637) " x="31.9218805" y="32.6022358" width="25.8677308" height="90.194802" rx="3.63789474"></rect>
                        <rect id="Rectangle" transform="translate(44.855746, 13.511925) rotate(90.000000) translate(-44.855746, -13.511925) " x="31.9218805" y="-31.5854761" width="25.8677308" height="90.194802" rx="3.63789474"></rect>
                    </g>
                    <rect id="Rectangle-3" x="24.7031644" y="25.3446297" width="40.305163" height="40.5223024" rx="1.58155932"></rect>
                </g>
                <g id="Group" opacity="0.15" transform="translate(1390.000000, 0.000000)">
                    <g id="Group-2" fill="#FFFFFF">
                        <rect id="Rectangle" x="0" y="0.508379888" width="25.8677308" height="90.194802" rx="3.63789474"></rect>
                        <rect id="Rectangle" transform="translate(44.855746, 77.699637) rotate(90.000000) translate(-44.855746, -77.699637) " x="31.9218805" y="32.6022358" width="25.8677308" height="90.194802" rx="3.63789474"></rect>
                        <rect id="Rectangle" transform="translate(44.855746, 13.511925) rotate(90.000000) translate(-44.855746, -13.511925) " x="31.9218805" y="-31.5854761" width="25.8677308" height="90.194802" rx="3.63789474"></rect>
                    </g>
                    <rect id="Rectangle-3" x="24.7031644" y="25.3446297" width="40.305163" height="40.5223024" rx="1.58155932"></rect>
                </g>
                <g id="Group" opacity="0.2" transform="translate(1271.000000, 120.000000)">
                    <g id="Group-2" fill="#FFFFFF">
                        <rect id="Rectangle" x="0" y="0.508379888" width="25.8677308" height="90.194802" rx="3.63789474"></rect>
                        <rect id="Rectangle" transform="translate(44.855746, 77.699637) rotate(90.000000) translate(-44.855746, -77.699637) " x="31.9218805" y="32.6022358" width="25.8677308" height="90.194802" rx="3.63789474"></rect>
                        <rect id="Rectangle" x="63.843761" y="0.508379888" width="25.8677308" height="90.194802" rx="3.63789474"></rect>
                        <rect id="Rectangle" transform="translate(44.855746, 13.511925) rotate(90.000000) translate(-44.855746, -13.511925) " x="31.9218805" y="-31.5854761" width="25.8677308" height="90.194802" rx="3.63789474"></rect>
                    </g>
                    <rect id="Rectangle-3" x="24.7031644" y="25.3446297" width="40.305163" height="40.5223024" rx="1.58155932"></rect>
                </g>
                <g id="Group" opacity="0.2" transform="translate(1271.000000, 240.000000)">
                    <g id="Group-2" fill="#FFFFFF">
                        <rect id="Rectangle" x="0" y="0.508379888" width="25.8677308" height="90.194802" rx="3.63789474"></rect>
                        <rect id="Rectangle" transform="translate(44.855746, 77.699637) rotate(90.000000) translate(-44.855746, -77.699637) " x="31.9218805" y="32.6022358" width="25.8677308" height="90.194802" rx="3.63789474"></rect>
                        <rect id="Rectangle" x="63.843761" y="0.508379888" width="25.8677308" height="90.194802" rx="3.63789474"></rect>
                        <rect id="Rectangle" transform="translate(44.855746, 13.511925) rotate(90.000000) translate(-44.855746, -13.511925) " x="31.9218805" y="-31.5854761" width="25.8677308" height="90.194802" rx="3.63789474"></rect>
                    </g>
                    <rect id="Rectangle-3" x="24.7031644" y="25.3446297" width="40.305163" height="40.5223024" rx="1.58155932"></rect>
                </g>
                <g id="Group" opacity="0.2" transform="translate(1271.000000, 360.000000)">
                    <g id="Group-2" fill="#FFFFFF">
                        <rect id="Rectangle" x="0" y="0.508379888" width="25.8677308" height="90.194802" rx="3.63789474"></rect>
                        <rect id="Rectangle" transform="translate(44.855746, 77.699637) rotate(90.000000) translate(-44.855746, -77.699637) " x="31.9218805" y="32.6022358" width="25.8677308" height="90.194802" rx="3.63789474"></rect>
                        <rect id="Rectangle" x="63.843761" y="0.508379888" width="25.8677308" height="90.194802" rx="3.63789474"></rect>
                        <rect id="Rectangle" transform="translate(44.855746, 13.511925) rotate(90.000000) translate(-44.855746, -13.511925) " x="31.9218805" y="-31.5854761" width="25.8677308" height="90.194802" rx="3.63789474"></rect>
                    </g>
                    <rect id="Rectangle-3" x="24.7031644" y="25.3446297" width="40.305163" height="40.5223024" rx="1.58155932"></rect>
                </g>
                <g id="Group" opacity="0.2" transform="translate(1271.000000, 480.000000)">
                    <g id="Group-2" fill="#FFFFFF">
                        <rect id="Rectangle" x="0" y="0.508379888" width="25.8677308" height="90.194802" rx="3.63789474"></rect>
                        <rect id="Rectangle" transform="translate(44.855746, 77.699637) rotate(90.000000) translate(-44.855746, -77.699637) " x="31.9218805" y="32.6022358" width="25.8677308" height="90.194802" rx="3.63789474"></rect>
                        <rect id="Rectangle" x="63.843761" y="0.508379888" width="25.8677308" height="90.194802" rx="3.63789474"></rect>
                        <rect id="Rectangle" transform="translate(44.855746, 13.511925) rotate(90.000000) translate(-44.855746, -13.511925) " x="31.9218805" y="-31.5854761" width="25.8677308" height="90.194802" rx="3.63789474"></rect>
                    </g>
                    <rect id="Rectangle-3" x="24.7031644" y="25.3446297" width="40.305163" height="40.5223024" rx="1.58155932"></rect>
                </g>
                <g id="Group" opacity="0.2" transform="translate(1271.000000, 600.000000)">
                    <g id="Group-2" fill="#FFFFFF">
                        <rect id="Rectangle" x="0" y="0.508379888" width="25.8677308" height="90.194802" rx="3.63789474"></rect>
                        <rect id="Rectangle" transform="translate(44.855746, 77.699637) rotate(90.000000) translate(-44.855746, -77.699637) " x="31.9218805" y="32.6022358" width="25.8677308" height="90.194802" rx="3.63789474"></rect>
                        <rect id="Rectangle" x="63.843761" y="0.508379888" width="25.8677308" height="90.194802" rx="3.63789474"></rect>
                        <rect id="Rectangle" transform="translate(44.855746, 13.511925) rotate(90.000000) translate(-44.855746, -13.511925) " x="31.9218805" y="-31.5854761" width="25.8677308" height="90.194802" rx="3.63789474"></rect>
                    </g>
                    <rect id="Rectangle-3" x="24.7031644" y="25.3446297" width="40.305163" height="40.5223024" rx="1.58155932"></rect>
                </g>
                <g id="Group" opacity="0.2" transform="translate(1271.000000, 0.000000)">
                    <g id="Group-2" fill="#FFFFFF">
                        <rect id="Rectangle" x="0" y="0.508379888" width="25.8677308" height="90.194802" rx="3.63789474"></rect>
                        <rect id="Rectangle" transform="translate(44.855746, 77.699637) rotate(90.000000) translate(-44.855746, -77.699637) " x="31.9218805" y="32.6022358" width="25.8677308" height="90.194802" rx="3.63789474"></rect>
                        <rect id="Rectangle" x="63.843761" y="0.508379888" width="25.8677308" height="90.194802" rx="3.63789474"></rect>
                        <rect id="Rectangle" transform="translate(44.855746, 13.511925) rotate(90.000000) translate(-44.855746, -13.511925) " x="31.9218805" y="-31.5854761" width="25.8677308" height="90.194802" rx="3.63789474"></rect>
                    </g>
                    <rect id="Rectangle-3" x="24.7031644" y="25.3446297" width="40.305163" height="40.5223024" rx="1.58155932"></rect>
                </g>
                <g id="Group" opacity="0.4" transform="translate(1151.000000, 120.000000)">
                    <g id="Group-2" fill="#FFFFFF">
                        <rect id="Rectangle" x="0" y="0.508379888" width="25.8677308" height="90.194802" rx="3.63789474"></rect>
                        <rect id="Rectangle" transform="translate(44.855746, 77.699637) rotate(90.000000) translate(-44.855746, -77.699637) " x="31.9218805" y="32.6022358" width="25.8677308" height="90.194802" rx="3.63789474"></rect>
                        <rect id="Rectangle" x="63.843761" y="0.508379888" width="25.8677308" height="90.194802" rx="3.63789474"></rect>
                        <rect id="Rectangle" transform="translate(44.855746, 13.511925) rotate(90.000000) translate(-44.855746, -13.511925) " x="31.9218805" y="-31.5854761" width="25.8677308" height="90.194802" rx="3.63789474"></rect>
                    </g>
                    <rect id="Rectangle-3" x="24.7031644" y="25.3446297" width="40.305163" height="40.5223024" rx="1.58155932"></rect>
                </g>
                <g id="Group" opacity="0.4" transform="translate(1151.000000, 240.000000)">
                    <g id="Group-2" fill="#FFFFFF">
                        <rect id="Rectangle" x="0" y="0.508379888" width="25.8677308" height="90.194802" rx="3.63789474"></rect>
                        <rect id="Rectangle" transform="translate(44.855746, 77.699637) rotate(90.000000) translate(-44.855746, -77.699637) " x="31.9218805" y="32.6022358" width="25.8677308" height="90.194802" rx="3.63789474"></rect>
                        <rect id="Rectangle" x="63.843761" y="0.508379888" width="25.8677308" height="90.194802" rx="3.63789474"></rect>
                        <rect id="Rectangle" transform="translate(44.855746, 13.511925) rotate(90.000000) translate(-44.855746, -13.511925) " x="31.9218805" y="-31.5854761" width="25.8677308" height="90.194802" rx="3.63789474"></rect>
                    </g>
                    <rect id="Rectangle-3" x="24.7031644" y="25.3446297" width="40.305163" height="40.5223024" rx="1.58155932"></rect>
                </g>
                <g id="Group" opacity="0.4" transform="translate(1151.000000, 360.000000)">
                    <g id="Group-2" fill="#FFFFFF">
                        <rect id="Rectangle" x="0" y="0.508379888" width="25.8677308" height="90.194802" rx="3.63789474"></rect>
                        <rect id="Rectangle" transform="translate(44.855746, 77.699637) rotate(90.000000) translate(-44.855746, -77.699637) " x="31.9218805" y="32.6022358" width="25.8677308" height="90.194802" rx="3.63789474"></rect>
                        <rect id="Rectangle" x="63.843761" y="0.508379888" width="25.8677308" height="90.194802" rx="3.63789474"></rect>
                        <rect id="Rectangle" transform="translate(44.855746, 13.511925) rotate(90.000000) translate(-44.855746, -13.511925) " x="31.9218805" y="-31.5854761" width="25.8677308" height="90.194802" rx="3.63789474"></rect>
                    </g>
                    <rect id="Rectangle-3" x="24.7031644" y="25.3446297" width="40.305163" height="40.5223024" rx="1.58155932"></rect>
                </g>
                <g id="Group" opacity="0.4" transform="translate(1151.000000, 480.000000)">
                    <g id="Group-2" fill="#FFFFFF">
                        <rect id="Rectangle" x="0" y="0.508379888" width="25.8677308" height="90.194802" rx="3.63789474"></rect>
                        <rect id="Rectangle" transform="translate(44.855746, 77.699637) rotate(90.000000) translate(-44.855746, -77.699637) " x="31.9218805" y="32.6022358" width="25.8677308" height="90.194802" rx="3.63789474"></rect>
                        <rect id="Rectangle" x="63.843761" y="0.508379888" width="25.8677308" height="90.194802" rx="3.63789474"></rect>
                        <rect id="Rectangle" transform="translate(44.855746, 13.511925) rotate(90.000000) translate(-44.855746, -13.511925) " x="31.9218805" y="-31.5854761" width="25.8677308" height="90.194802" rx="3.63789474"></rect>
                    </g>
                    <rect id="Rectangle-3" x="24.7031644" y="25.3446297" width="40.305163" height="40.5223024" rx="1.58155932"></rect>
                </g>
                <g id="Group" opacity="0.4" transform="translate(1151.000000, 600.000000)">
                    <g id="Group-2" fill="#FFFFFF">
                        <rect id="Rectangle" x="0" y="0.508379888" width="25.8677308" height="90.194802" rx="3.63789474"></rect>
                        <rect id="Rectangle" transform="translate(44.855746, 77.699637) rotate(90.000000) translate(-44.855746, -77.699637) " x="31.9218805" y="32.6022358" width="25.8677308" height="90.194802" rx="3.63789474"></rect>
                        <rect id="Rectangle" x="63.843761" y="0.508379888" width="25.8677308" height="90.194802" rx="3.63789474"></rect>
                        <rect id="Rectangle" transform="translate(44.855746, 13.511925) rotate(90.000000) translate(-44.855746, -13.511925) " x="31.9218805" y="-31.5854761" width="25.8677308" height="90.194802" rx="3.63789474"></rect>
                    </g>
                    <rect id="Rectangle-3" x="24.7031644" y="25.3446297" width="40.305163" height="40.5223024" rx="1.58155932"></rect>
                </g>
                <g id="Group" opacity="0.4" transform="translate(1151.000000, 0.000000)">
                    <g id="Group-2" fill="#FFFFFF">
                        <rect id="Rectangle" x="0" y="0.508379888" width="25.8677308" height="90.194802" rx="3.63789474"></rect>
                        <rect id="Rectangle" transform="translate(44.855746, 77.699637) rotate(90.000000) translate(-44.855746, -77.699637) " x="31.9218805" y="32.6022358" width="25.8677308" height="90.194802" rx="3.63789474"></rect>
                        <rect id="Rectangle" x="63.843761" y="0.508379888" width="25.8677308" height="90.194802" rx="3.63789474"></rect>
                        <rect id="Rectangle" transform="translate(44.855746, 13.511925) rotate(90.000000) translate(-44.855746, -13.511925) " x="31.9218805" y="-31.5854761" width="25.8677308" height="90.194802" rx="3.63789474"></rect>
                    </g>
                    <rect id="Rectangle-3" x="24.7031644" y="25.3446297" width="40.305163" height="40.5223024" rx="1.58155932"></rect>
                </g>
                <g id="Group" opacity="0.5" transform="translate(1032.000000, 360.000000)">
                    <g id="Group-2" fill="#FFFFFF">
                        <rect id="Rectangle" x="0" y="0.508379888" width="25.8677308" height="90.194802" rx="3.63789474"></rect>
                        <rect id="Rectangle" transform="translate(44.855746, 77.699637) rotate(90.000000) translate(-44.855746, -77.699637) " x="31.9218805" y="32.6022358" width="25.8677308" height="90.194802" rx="3.63789474"></rect>
                        <rect id="Rectangle" x="63.843761" y="0.508379888" width="25.8677308" height="90.194802" rx="3.63789474"></rect>
                        <rect id="Rectangle" transform="translate(44.855746, 13.511925) rotate(90.000000) translate(-44.855746, -13.511925) " x="31.9218805" y="-31.5854761" width="25.8677308" height="90.194802" rx="3.63789474"></rect>
                    </g>
                    <rect id="Rectangle-3" x="24.7031644" y="25.3446297" width="40.305163" height="40.5223024" rx="1.58155932"></rect>
                </g>
                <g id="Group" opacity="0.5" transform="translate(1032.000000, 480.000000)">
                    <g id="Group-2" fill="#FFFFFF">
                        <rect id="Rectangle" x="0" y="0.508379888" width="25.8677308" height="90.194802" rx="3.63789474"></rect>
                        <rect id="Rectangle" transform="translate(44.855746, 77.699637) rotate(90.000000) translate(-44.855746, -77.699637) " x="31.9218805" y="32.6022358" width="25.8677308" height="90.194802" rx="3.63789474"></rect>
                        <rect id="Rectangle" x="63.843761" y="0.508379888" width="25.8677308" height="90.194802" rx="3.63789474"></rect>
                        <rect id="Rectangle" transform="translate(44.855746, 13.511925) rotate(90.000000) translate(-44.855746, -13.511925) " x="31.9218805" y="-31.5854761" width="25.8677308" height="90.194802" rx="3.63789474"></rect>
                    </g>
                    <rect id="Rectangle-3" x="24.7031644" y="25.3446297" width="40.305163" height="40.5223024" rx="1.58155932"></rect>
                </g>
                <g id="Group" opacity="0.5" transform="translate(1032.000000, 645.500000) rotate(-15.000000) translate(-1032.000000, -645.500000) translate(987.000000, 600.000000)">
                    <g id="Group-2" fill="#FFFFFF">
                        <rect id="Rectangle" x="0" y="0.508379888" width="25.8677308" height="90.194802" rx="3.63789474"></rect>
                        <rect id="Rectangle" transform="translate(44.855746, 77.699637) rotate(90.000000) translate(-44.855746, -77.699637) " x="31.9218805" y="32.6022358" width="25.8677308" height="90.194802" rx="3.63789474"></rect>
                        <rect id="Rectangle" x="63.843761" y="0.508379888" width="25.8677308" height="90.194802" rx="3.63789474"></rect>
                        <rect id="Rectangle" transform="translate(44.855746, 13.511925) rotate(90.000000) translate(-44.855746, -13.511925) " x="31.9218805" y="-31.5854761" width="25.8677308" height="90.194802" rx="3.63789474"></rect>
                    </g>
                    <rect id="Rectangle-3" x="24.7031644" y="25.3446297" width="40.305163" height="40.5223024" rx="1.58155932"></rect>
                </g>
                <g id="Group" opacity="0.5" transform="translate(1032.000000, 0.000000)">
                    <g id="Group-2" fill="#FFFFFF">
                        <rect id="Rectangle" x="0" y="0.508379888" width="25.8677308" height="90.194802" rx="3.63789474"></rect>
                        <rect id="Rectangle" transform="translate(44.855746, 77.699637) rotate(90.000000) translate(-44.855746, -77.699637) " x="31.9218805" y="32.6022358" width="25.8677308" height="90.194802" rx="3.63789474"></rect>
                        <rect id="Rectangle" x="63.843761" y="0.508379888" width="25.8677308" height="90.194802" rx="3.63789474"></rect>
                        <rect id="Rectangle" transform="translate(44.855746, 13.511925) rotate(90.000000) translate(-44.855746, -13.511925) " x="31.9218805" y="-31.5854761" width="25.8677308" height="90.194802" rx="3.63789474"></rect>
                    </g>
                    <rect id="Rectangle-3" x="24.7031644" y="25.3446297" width="40.305163" height="40.5223024" rx="1.58155932"></rect>
                </g>
                <g id="Group" opacity="0.8" transform="translate(675.000000, 285.500000) rotate(30.000000) translate(-675.000000, -285.500000) translate(630.000000, 240.000000)">
                    <g id="Group-2" fill="#FFFFFF">
                        <rect id="Rectangle" x="0" y="0.508379888" width="25.8677308" height="90.194802" rx="3.63789474"></rect>
                        <rect id="Rectangle" transform="translate(44.855746, 77.699637) rotate(90.000000) translate(-44.855746, -77.699637) " x="31.9218805" y="32.6022358" width="25.8677308" height="90.194802" rx="3.63789474"></rect>
                        <rect id="Rectangle" x="63.843761" y="0.508379888" width="25.8677308" height="90.194802" rx="3.63789474"></rect>
                        <rect id="Rectangle" transform="translate(44.855746, 13.511925) rotate(90.000000) translate(-44.855746, -13.511925) " x="31.9218805" y="-31.5854761" width="25.8677308" height="90.194802" rx="3.63789474"></rect>
                    </g>
                    <rect id="Rectangle-3" x="24.7031644" y="25.3446297" width="40.305163" height="40.5223024" rx="1.58155932"></rect>
                </g>
                <g id="Group" opacity="0.8" transform="translate(902.721143, 165.904156) rotate(-30.000000) translate(-902.721143, -165.904156) translate(857.721143, 120.404156)">
                    <g id="Group-2" fill="#FFFFFF">
                        <rect id="Rectangle" x="0" y="0.508379888" width="25.8677308" height="90.194802" rx="3.63789474"></rect>
                        <rect id="Rectangle" transform="translate(44.855746, 77.699637) rotate(90.000000) translate(-44.855746, -77.699637) " x="31.9218805" y="32.6022358" width="25.8677308" height="90.194802" rx="3.63789474"></rect>
                        <rect id="Rectangle" x="63.843761" y="0.508379888" width="25.8677308" height="90.194802" rx="3.63789474"></rect>
                        <rect id="Rectangle" transform="translate(44.855746, 13.511925) rotate(90.000000) translate(-44.855746, -13.511925) " x="31.9218805" y="-31.5854761" width="25.8677308" height="90.194802" rx="3.63789474"></rect>
                    </g>
                    <rect id="Rectangle-3" x="24.7031644" y="25.3446297" width="40.305163" height="40.5223024" rx="1.58155932"></rect>
                </g>
            </g>
        </g>
    </g>
</svg>