<?xml version="1.0" encoding="UTF-8" standalone="no"?>
<svg width="1518px" height="1687px" viewBox="0 0 1518 1687" version="1.1" xmlns="http://www.w3.org/2000/svg" xmlns:xlink="http://www.w3.org/1999/xlink">
    <!-- Generator: Sketch 41.2 (35397) - http://www.bohemiancoding.com/sketch -->
    <title>Group 5</title>
    <desc>Created with Sketch.</desc>
    <defs></defs>
    <g id="Page-1" stroke="none" stroke-width="1" fill="none" fill-rule="evenodd">
        <g id="Artboard" transform="translate(-338.000000, -264.000000)">
            <g id="Group-5" transform="translate(338.000000, 264.000000)">
                <g id="Group" transform="translate(765.000000, 0.000000)">
                    <g id="Group-2">
                        <g id="Group-4">
                            <rect id="Rectangle" fill="#4C4491" x="348.788377" y="80.8505874" width="45.9446764" height="159.540434" rx="8.79162984"></rect>
                            <rect id="Rectangle" fill="#4C4491" transform="translate(428.458401, 217.389793) rotate(90.000000) translate(-428.458401, -217.389793) " x="405.486063" y="137.619576" width="45.9446764" height="159.540434" rx="8.79162984"></rect>
                            <rect id="Rectangle" fill="#4C4491" x="462.183748" y="80.8505874" width="45.9446764" height="159.540434" rx="8.79162984"></rect>
                            <rect id="Rectangle" fill="#4C4491" transform="translate(428.458401, 103.851816) rotate(90.000000) translate(-428.458401, -103.851816) " x="405.486063" y="24.0815987" width="45.9446764" height="159.540434" rx="8.79162984"></rect>
                            <rect id="Rectangle-3" fill="#FFFFFF" x="392.664622" y="124.782011" width="71.5875577" height="71.6775862" rx="3.82212382"></rect>
                            <rect id="Rectangle" fill="#66BFBF" x="0.871575342" y="0.348533643" width="91.8893527" height="319.080867" rx="8.79162984"></rect>
                            <rect id="Rectangle" fill="#66BFBF" transform="translate(160.211623, 273.426945) rotate(90.000000) translate(-160.211623, -273.426945) " x="114.266947" y="113.886511" width="91.8893527" height="319.080867" rx="8.79162984"></rect>
                            <rect id="Rectangle" fill="#66BFBF" x="227.662318" y="0.348533643" width="91.8893527" height="319.080867" rx="8.79162984"></rect>
                            <rect id="Rectangle" fill="#66BFBF" transform="translate(160.211623, 46.350990) rotate(90.000000) translate(-160.211623, -46.350990) " x="114.266947" y="-113.189444" width="91.8893527" height="319.080867" rx="8.79162984"></rect>
                            <rect id="Rectangle-3" fill="#FFFFFF" x="88.6240654" y="88.2113812" width="143.175115" height="143.355172" rx="3.82212382"></rect>
                            <g id="yellow_box" transform="translate(102.566855, 331.934959)">
                                <rect id="Rectangle" fill="#FFB900" x="0.633191395" y="0.66750512" width="40.0435253" height="139.049002" rx="8.79162984"></rect>
                                <rect id="Rectangle" fill="#FFB900" transform="translate(70.070368, 119.669565) rotate(90.000000) translate(-70.070368, -119.669565) " x="50.0486055" y="50.1450641" width="40.0435253" height="139.049002" rx="8.79162984"></rect>
                                <rect id="Rectangle" fill="#FFB900" x="99.4640197" y="0.66750512" width="40.0435253" height="139.049002" rx="8.79162984"></rect>
                                <rect id="Rectangle" fill="#FFB900" transform="translate(70.070368, 20.714447) rotate(90.000000) translate(-70.070368, -20.714447) " x="50.0486055" y="-48.8100538" width="40.0435253" height="139.049002" rx="8.79162984"></rect>
                                <rect id="Rectangle-3" fill="#FFFFFF" x="38.8739554" y="38.9563607" width="62.3928255" height="62.4712907" rx="3.82212382"></rect>
                            </g>
                            <g id="Group" transform="translate(211.375859, 183.550428)">
                                <g id="Group-2" fill="#FD5C63">
                                    <rect id="Rectangle" x="0" y="1.22099205" width="62.3835972" height="216.623708" rx="8.79162984"></rect>
                                    <rect id="Rectangle" transform="translate(108.175812, 186.613675) rotate(90.000000) translate(-108.175812, -186.613675) " x="76.9840136" y="78.3018207" width="62.3835972" height="216.623708" rx="8.79162984"></rect>
                                    <rect id="Rectangle" x="153.968027" y="1.22099205" width="62.3835972" height="216.623708" rx="8.79162984"></rect>
                                    <rect id="Rectangle" transform="translate(108.175812, 32.452017) rotate(90.000000) translate(-108.175812, -32.452017) " x="76.9840136" y="-75.8598366" width="62.3835972" height="216.623708" rx="8.79162984"></rect>
                                </g>
                                <rect id="Rectangle-3" fill="#FFFFFF" x="59.575085" y="60.8709987" width="97.2014545" height="97.323695" rx="3.82212382"></rect>
                            </g>
                        </g>
                    </g>
                </g>
                <g id="Group-4" transform="translate(0.000000, 1236.000000)">
                    <g id="Group-3">
                        <g id="Group" opacity="0.15" transform="translate(0.000000, 360.000000)">
                            <g id="Group-2" fill="#9B9B9B">
                                <rect id="Rectangle" x="0" y="1" width="25.9509202" height="89.9932812" rx="7.2"></rect>
                                <rect id="Rectangle" transform="translate(45.000000, 78.018790) rotate(90.000000) translate(-45.000000, -78.018790) " x="32.0245399" y="33.0221491" width="25.9509202" height="89.9932812" rx="7.2"></rect>
                                <rect id="Rectangle" x="64.0490798" y="1" width="25.9509202" height="89.9932812" rx="7.2"></rect>
                                <rect id="Rectangle" transform="translate(45.000000, 13.974491) rotate(90.000000) translate(-45.000000, -13.974491) " x="32.0245399" y="-31.0221491" width="25.9509202" height="89.9932812" rx="7.2"></rect>
                            </g>
                            <rect id="Rectangle-3" fill="#FFFFFF" x="24.7826087" y="25.7807586" width="40.4347826" height="40.431764" rx="3.13016949"></rect>
                        </g>
                        <g id="Group" opacity="0.15" transform="translate(119.000000, 360.000000)">
                            <g id="Group-2" fill="#9B9B9B">
                                <rect id="Rectangle" x="0" y="1" width="25.9509202" height="89.9932812" rx="7.2"></rect>
                                <rect id="Rectangle" transform="translate(45.000000, 78.018790) rotate(90.000000) translate(-45.000000, -78.018790) " x="32.0245399" y="33.0221491" width="25.9509202" height="89.9932812" rx="7.2"></rect>
                                <rect id="Rectangle" x="64.0490798" y="1" width="25.9509202" height="89.9932812" rx="7.2"></rect>
                                <rect id="Rectangle" transform="translate(45.000000, 13.974491) rotate(90.000000) translate(-45.000000, -13.974491) " x="32.0245399" y="-31.0221491" width="25.9509202" height="89.9932812" rx="7.2"></rect>
                            </g>
                            <rect id="Rectangle-3" fill="#FFFFFF" x="24.7826087" y="25.7807586" width="40.4347826" height="40.431764" rx="3.13016949"></rect>
                        </g>
                        <g id="Group" opacity="0.15" transform="translate(238.000000, 360.000000)">
                            <g id="Group-2" fill="#9B9B9B">
                                <rect id="Rectangle" x="0" y="1" width="25.9509202" height="89.9932812" rx="7.2"></rect>
                                <rect id="Rectangle" transform="translate(45.000000, 78.018790) rotate(90.000000) translate(-45.000000, -78.018790) " x="32.0245399" y="33.0221491" width="25.9509202" height="89.9932812" rx="7.2"></rect>
                                <rect id="Rectangle" x="64.0490798" y="1" width="25.9509202" height="89.9932812" rx="7.2"></rect>
                                <rect id="Rectangle" transform="translate(45.000000, 13.974491) rotate(90.000000) translate(-45.000000, -13.974491) " x="32.0245399" y="-31.0221491" width="25.9509202" height="89.9932812" rx="7.2"></rect>
                            </g>
                            <rect id="Rectangle-3" fill="#FFFFFF" x="24.7826087" y="25.7807586" width="40.4347826" height="40.431764" rx="3.13016949"></rect>
                        </g>
                        <g id="Group" opacity="0.15" transform="translate(357.000000, 360.000000)">
                            <g id="Group-2" fill="#9B9B9B">
                                <rect id="Rectangle" x="0" y="1" width="25.9509202" height="89.9932812" rx="7.2"></rect>
                                <rect id="Rectangle" transform="translate(45.000000, 78.018790) rotate(90.000000) translate(-45.000000, -78.018790) " x="32.0245399" y="33.0221491" width="25.9509202" height="89.9932812" rx="7.2"></rect>
                                <rect id="Rectangle" x="64.0490798" y="1" width="25.9509202" height="89.9932812" rx="7.2"></rect>
                                <rect id="Rectangle" transform="translate(45.000000, 13.974491) rotate(90.000000) translate(-45.000000, -13.974491) " x="32.0245399" y="-31.0221491" width="25.9509202" height="89.9932812" rx="7.2"></rect>
                            </g>
                            <rect id="Rectangle-3" fill="#FFFFFF" x="24.7826087" y="25.7807586" width="40.4347826" height="40.431764" rx="3.13016949"></rect>
                        </g>
                        <g id="Group" opacity="0.15" transform="translate(476.000000, 360.000000)">
                            <g id="Group-2" fill="#9B9B9B">
                                <rect id="Rectangle" x="0" y="1" width="25.9509202" height="89.9932812" rx="7.2"></rect>
                                <rect id="Rectangle" transform="translate(45.000000, 78.018790) rotate(90.000000) translate(-45.000000, -78.018790) " x="32.0245399" y="33.0221491" width="25.9509202" height="89.9932812" rx="7.2"></rect>
                                <rect id="Rectangle" x="64.0490798" y="1" width="25.9509202" height="89.9932812" rx="7.2"></rect>
                                <rect id="Rectangle" transform="translate(45.000000, 13.974491) rotate(90.000000) translate(-45.000000, -13.974491) " x="32.0245399" y="-31.0221491" width="25.9509202" height="89.9932812" rx="7.2"></rect>
                            </g>
                            <rect id="Rectangle-3" fill="#FFFFFF" x="24.7826087" y="25.7807586" width="40.4347826" height="40.431764" rx="3.13016949"></rect>
                        </g>
                        <g id="Group" opacity="0.15" transform="translate(595.000000, 360.000000)">
                            <g id="Group-2" fill="#9B9B9B">
                                <rect id="Rectangle" x="0" y="1" width="25.9509202" height="89.9932812" rx="7.2"></rect>
                                <rect id="Rectangle" transform="translate(45.000000, 78.018790) rotate(90.000000) translate(-45.000000, -78.018790) " x="32.0245399" y="33.0221491" width="25.9509202" height="89.9932812" rx="7.2"></rect>
                                <rect id="Rectangle" x="64.0490798" y="1" width="25.9509202" height="89.9932812" rx="7.2"></rect>
                                <rect id="Rectangle" transform="translate(45.000000, 13.974491) rotate(90.000000) translate(-45.000000, -13.974491) " x="32.0245399" y="-31.0221491" width="25.9509202" height="89.9932812" rx="7.2"></rect>
                            </g>
                            <rect id="Rectangle-3" fill="#FFFFFF" x="24.7826087" y="25.7807586" width="40.4347826" height="40.431764" rx="3.13016949"></rect>
                        </g>
                        <g id="Group" opacity="0.15" transform="translate(714.000000, 360.000000)">
                            <g id="Group-2" fill="#9B9B9B">
                                <rect id="Rectangle" x="0" y="1" width="25.9509202" height="89.9932812" rx="7.2"></rect>
                                <rect id="Rectangle" transform="translate(45.000000, 78.018790) rotate(90.000000) translate(-45.000000, -78.018790) " x="32.0245399" y="33.0221491" width="25.9509202" height="89.9932812" rx="7.2"></rect>
                                <rect id="Rectangle" x="64.0490798" y="1" width="25.9509202" height="89.9932812" rx="7.2"></rect>
                                <rect id="Rectangle" transform="translate(45.000000, 13.974491) rotate(90.000000) translate(-45.000000, -13.974491) " x="32.0245399" y="-31.0221491" width="25.9509202" height="89.9932812" rx="7.2"></rect>
                            </g>
                            <rect id="Rectangle-3" fill="#FFFFFF" x="24.7826087" y="25.7807586" width="40.4347826" height="40.431764" rx="3.13016949"></rect>
                        </g>
                        <g id="Group" opacity="0.15" transform="translate(833.000000, 360.000000)">
                            <g id="Group-2" fill="#9B9B9B">
                                <rect id="Rectangle" x="0" y="1" width="25.9509202" height="89.9932812" rx="7.2"></rect>
                                <rect id="Rectangle" transform="translate(45.000000, 78.018790) rotate(90.000000) translate(-45.000000, -78.018790) " x="32.0245399" y="33.0221491" width="25.9509202" height="89.9932812" rx="7.2"></rect>
                                <rect id="Rectangle" x="64.0490798" y="1" width="25.9509202" height="89.9932812" rx="7.2"></rect>
                                <rect id="Rectangle" transform="translate(45.000000, 13.974491) rotate(90.000000) translate(-45.000000, -13.974491) " x="32.0245399" y="-31.0221491" width="25.9509202" height="89.9932812" rx="7.2"></rect>
                            </g>
                            <rect id="Rectangle-3" fill="#FFFFFF" x="24.7826087" y="25.7807586" width="40.4347826" height="40.431764" rx="3.13016949"></rect>
                        </g>
                        <g id="Group" opacity="0.15" transform="translate(952.000000, 360.000000)">
                            <g id="Group-2" fill="#9B9B9B">
                                <rect id="Rectangle" x="0" y="1" width="25.9509202" height="89.9932812" rx="7.2"></rect>
                                <rect id="Rectangle" transform="translate(45.000000, 78.018790) rotate(90.000000) translate(-45.000000, -78.018790) " x="32.0245399" y="33.0221491" width="25.9509202" height="89.9932812" rx="7.2"></rect>
                                <rect id="Rectangle" x="64.0490798" y="1" width="25.9509202" height="89.9932812" rx="7.2"></rect>
                                <rect id="Rectangle" transform="translate(45.000000, 13.974491) rotate(90.000000) translate(-45.000000, -13.974491) " x="32.0245399" y="-31.0221491" width="25.9509202" height="89.9932812" rx="7.2"></rect>
                            </g>
                            <rect id="Rectangle-3" fill="#FFFFFF" x="24.7826087" y="25.7807586" width="40.4347826" height="40.431764" rx="3.13016949"></rect>
                        </g>
                        <g id="Group" opacity="0.15" transform="translate(1071.000000, 360.000000)">
                            <g id="Group-2" fill="#9B9B9B">
                                <rect id="Rectangle" x="0" y="1" width="25.9509202" height="89.9932812" rx="7.2"></rect>
                                <rect id="Rectangle" transform="translate(45.000000, 78.018790) rotate(90.000000) translate(-45.000000, -78.018790) " x="32.0245399" y="33.0221491" width="25.9509202" height="89.9932812" rx="7.2"></rect>
                                <rect id="Rectangle" x="64.0490798" y="1" width="25.9509202" height="89.9932812" rx="7.2"></rect>
                                <rect id="Rectangle" transform="translate(45.000000, 13.974491) rotate(90.000000) translate(-45.000000, -13.974491) " x="32.0245399" y="-31.0221491" width="25.9509202" height="89.9932812" rx="7.2"></rect>
                            </g>
                            <rect id="Rectangle-3" fill="#FFFFFF" x="24.7826087" y="25.7807586" width="40.4347826" height="40.431764" rx="3.13016949"></rect>
                        </g>
                        <g id="Group" opacity="0.15" transform="translate(1190.000000, 360.000000)">
                            <g id="Group-2" fill="#9B9B9B">
                                <rect id="Rectangle" x="0" y="1" width="25.9509202" height="89.9932812" rx="7.2"></rect>
                                <rect id="Rectangle" transform="translate(45.000000, 78.018790) rotate(90.000000) translate(-45.000000, -78.018790) " x="32.0245399" y="33.0221491" width="25.9509202" height="89.9932812" rx="7.2"></rect>
                                <rect id="Rectangle" x="64.0490798" y="1" width="25.9509202" height="89.9932812" rx="7.2"></rect>
                                <rect id="Rectangle" transform="translate(45.000000, 13.974491) rotate(90.000000) translate(-45.000000, -13.974491) " x="32.0245399" y="-31.0221491" width="25.9509202" height="89.9932812" rx="7.2"></rect>
                            </g>
                            <rect id="Rectangle-3" fill="#FFFFFF" x="24.7826087" y="25.7807586" width="40.4347826" height="40.431764" rx="3.13016949"></rect>
                        </g>
                        <g id="Group" opacity="0.15" transform="translate(1309.000000, 360.000000)">
                            <g id="Group-2" fill="#9B9B9B">
                                <rect id="Rectangle" x="0" y="1" width="25.9509202" height="89.9932812" rx="7.2"></rect>
                                <rect id="Rectangle" transform="translate(45.000000, 78.018790) rotate(90.000000) translate(-45.000000, -78.018790) " x="32.0245399" y="33.0221491" width="25.9509202" height="89.9932812" rx="7.2"></rect>
                                <rect id="Rectangle" x="64.0490798" y="1" width="25.9509202" height="89.9932812" rx="7.2"></rect>
                                <rect id="Rectangle" transform="translate(45.000000, 13.974491) rotate(90.000000) translate(-45.000000, -13.974491) " x="32.0245399" y="-31.0221491" width="25.9509202" height="89.9932812" rx="7.2"></rect>
                            </g>
                            <rect id="Rectangle-3" fill="#FFFFFF" x="24.7826087" y="25.7807586" width="40.4347826" height="40.431764" rx="3.13016949"></rect>
                        </g>
                        <g id="Group" opacity="0.25" transform="translate(595.000000, 240.000000)">
                            <g id="Group-2" fill="#9B9B9B">
                                <rect id="Rectangle" x="0" y="1" width="25.9509202" height="89.9932812" rx="7.2"></rect>
                                <rect id="Rectangle" transform="translate(45.000000, 78.018790) rotate(90.000000) translate(-45.000000, -78.018790) " x="32.0245399" y="33.0221491" width="25.9509202" height="89.9932812" rx="7.2"></rect>
                                <rect id="Rectangle" x="64.0490798" y="1" width="25.9509202" height="89.9932812" rx="7.2"></rect>
                                <rect id="Rectangle" transform="translate(45.000000, 13.974491) rotate(90.000000) translate(-45.000000, -13.974491) " x="32.0245399" y="-31.0221491" width="25.9509202" height="89.9932812" rx="7.2"></rect>
                            </g>
                            <rect id="Rectangle-3" fill="#FFFFFF" x="24.7826087" y="25.7807586" width="40.4347826" height="40.431764" rx="3.13016949"></rect>
                        </g>
                        <g id="Group" opacity="0.25" transform="translate(714.000000, 240.000000)">
                            <g id="Group-2" fill="#9B9B9B">
                                <rect id="Rectangle" x="0" y="1" width="25.9509202" height="89.9932812" rx="7.2"></rect>
                                <rect id="Rectangle" transform="translate(45.000000, 78.018790) rotate(90.000000) translate(-45.000000, -78.018790) " x="32.0245399" y="33.0221491" width="25.9509202" height="89.9932812" rx="7.2"></rect>
                                <rect id="Rectangle" x="64.0490798" y="1" width="25.9509202" height="89.9932812" rx="7.2"></rect>
                                <rect id="Rectangle" transform="translate(45.000000, 13.974491) rotate(90.000000) translate(-45.000000, -13.974491) " x="32.0245399" y="-31.0221491" width="25.9509202" height="89.9932812" rx="7.2"></rect>
                            </g>
                            <rect id="Rectangle-3" fill="#FFFFFF" x="24.7826087" y="25.7807586" width="40.4347826" height="40.431764" rx="3.13016949"></rect>
                        </g>
                        <g id="Group" opacity="0.25" transform="translate(357.000000, 240.000000)">
                            <g id="Group-2" fill="#9B9B9B">
                                <rect id="Rectangle" x="0" y="1" width="25.9509202" height="89.9932812" rx="7.2"></rect>
                                <rect id="Rectangle" transform="translate(45.000000, 78.018790) rotate(90.000000) translate(-45.000000, -78.018790) " x="32.0245399" y="33.0221491" width="25.9509202" height="89.9932812" rx="7.2"></rect>
                                <rect id="Rectangle" x="64.0490798" y="1" width="25.9509202" height="89.9932812" rx="7.2"></rect>
                                <rect id="Rectangle" transform="translate(45.000000, 13.974491) rotate(90.000000) translate(-45.000000, -13.974491) " x="32.0245399" y="-31.0221491" width="25.9509202" height="89.9932812" rx="7.2"></rect>
                            </g>
                            <rect id="Rectangle-3" fill="#FFFFFF" x="24.7826087" y="25.7807586" width="40.4347826" height="40.431764" rx="3.13016949"></rect>
                        </g>
                        <g id="Group" opacity="0.25" transform="translate(476.000000, 240.000000)">
                            <g id="Group-2" fill="#9B9B9B">
                                <rect id="Rectangle" x="0" y="1" width="25.9509202" height="89.9932812" rx="7.2"></rect>
                                <rect id="Rectangle" transform="translate(45.000000, 78.018790) rotate(90.000000) translate(-45.000000, -78.018790) " x="32.0245399" y="33.0221491" width="25.9509202" height="89.9932812" rx="7.2"></rect>
                                <rect id="Rectangle" x="64.0490798" y="1" width="25.9509202" height="89.9932812" rx="7.2"></rect>
                                <rect id="Rectangle" transform="translate(45.000000, 13.974491) rotate(90.000000) translate(-45.000000, -13.974491) " x="32.0245399" y="-31.0221491" width="25.9509202" height="89.9932812" rx="7.2"></rect>
                            </g>
                            <rect id="Rectangle-3" fill="#FFFFFF" x="24.7826087" y="25.7807586" width="40.4347826" height="40.431764" rx="3.13016949"></rect>
                        </g>
                        <g id="Group" transform="translate(238.000000, 240.000000)">
                            <g id="Group-2" fill="#FD5C63">
                                <rect id="Rectangle" x="0" y="1" width="25.9509202" height="89.9932812" rx="7.2"></rect>
                                <rect id="Rectangle" transform="translate(45.000000, 78.018790) rotate(90.000000) translate(-45.000000, -78.018790) " x="32.0245399" y="33.0221491" width="25.9509202" height="89.9932812" rx="7.2"></rect>
                                <rect id="Rectangle" x="64.0490798" y="1" width="25.9509202" height="89.9932812" rx="7.2"></rect>
                                <rect id="Rectangle" transform="translate(45.000000, 13.974491) rotate(90.000000) translate(-45.000000, -13.974491) " x="32.0245399" y="-31.0221491" width="25.9509202" height="89.9932812" rx="7.2"></rect>
                            </g>
                            <rect id="Rectangle-3" fill="#FFFFFF" x="24.7826087" y="25.7807586" width="40.4347826" height="40.431764" rx="3.13016949"></rect>
                        </g>
                        <g id="Group" opacity="0.25" transform="translate(833.000000, 240.000000)">
                            <g id="Group-2" fill="#9B9B9B">
                                <rect id="Rectangle" x="0" y="1" width="25.9509202" height="89.9932812" rx="7.2"></rect>
                                <rect id="Rectangle" transform="translate(45.000000, 78.018790) rotate(90.000000) translate(-45.000000, -78.018790) " x="32.0245399" y="33.0221491" width="25.9509202" height="89.9932812" rx="7.2"></rect>
                                <rect id="Rectangle" x="64.0490798" y="1" width="25.9509202" height="89.9932812" rx="7.2"></rect>
                                <rect id="Rectangle" transform="translate(45.000000, 13.974491) rotate(90.000000) translate(-45.000000, -13.974491) " x="32.0245399" y="-31.0221491" width="25.9509202" height="89.9932812" rx="7.2"></rect>
                            </g>
                            <rect id="Rectangle-3" fill="#FFFFFF" x="24.7826087" y="25.7807586" width="40.4347826" height="40.431764" rx="3.13016949"></rect>
                        </g>
                        <g id="Group" opacity="0.25" transform="translate(952.000000, 240.000000)">
                            <g id="Group-2" fill="#9B9B9B">
                                <rect id="Rectangle" x="0" y="1" width="25.9509202" height="89.9932812" rx="7.2"></rect>
                                <rect id="Rectangle" transform="translate(45.000000, 78.018790) rotate(90.000000) translate(-45.000000, -78.018790) " x="32.0245399" y="33.0221491" width="25.9509202" height="89.9932812" rx="7.2"></rect>
                                <rect id="Rectangle" x="64.0490798" y="1" width="25.9509202" height="89.9932812" rx="7.2"></rect>
                                <rect id="Rectangle" transform="translate(45.000000, 13.974491) rotate(90.000000) translate(-45.000000, -13.974491) " x="32.0245399" y="-31.0221491" width="25.9509202" height="89.9932812" rx="7.2"></rect>
                            </g>
                            <rect id="Rectangle-3" fill="#FFFFFF" x="24.7826087" y="25.7807586" width="40.4347826" height="40.431764" rx="3.13016949"></rect>
                        </g>
                        <g id="Group" opacity="0.25" transform="translate(1071.000000, 240.000000)">
                            <g id="Group-2" fill="#9B9B9B">
                                <rect id="Rectangle" x="0" y="1" width="25.9509202" height="89.9932812" rx="7.2"></rect>
                                <rect id="Rectangle" transform="translate(45.000000, 78.018790) rotate(90.000000) translate(-45.000000, -78.018790) " x="32.0245399" y="33.0221491" width="25.9509202" height="89.9932812" rx="7.2"></rect>
                                <rect id="Rectangle" x="64.0490798" y="1" width="25.9509202" height="89.9932812" rx="7.2"></rect>
                                <rect id="Rectangle" transform="translate(45.000000, 13.974491) rotate(90.000000) translate(-45.000000, -13.974491) " x="32.0245399" y="-31.0221491" width="25.9509202" height="89.9932812" rx="7.2"></rect>
                            </g>
                            <rect id="Rectangle-3" fill="#FFFFFF" x="24.7826087" y="25.7807586" width="40.4347826" height="40.431764" rx="3.13016949"></rect>
                        </g>
                        <g id="Group" opacity="0.25" transform="translate(1190.000000, 240.000000)">
                            <g id="Group-2" fill="#9B9B9B">
                                <rect id="Rectangle" x="0" y="1" width="25.9509202" height="89.9932812" rx="7.2"></rect>
                                <rect id="Rectangle" transform="translate(45.000000, 78.018790) rotate(90.000000) translate(-45.000000, -78.018790) " x="32.0245399" y="33.0221491" width="25.9509202" height="89.9932812" rx="7.2"></rect>
                                <rect id="Rectangle" x="64.0490798" y="1" width="25.9509202" height="89.9932812" rx="7.2"></rect>
                                <rect id="Rectangle" transform="translate(45.000000, 13.974491) rotate(90.000000) translate(-45.000000, -13.974491) " x="32.0245399" y="-31.0221491" width="25.9509202" height="89.9932812" rx="7.2"></rect>
                            </g>
                            <rect id="Rectangle-3" fill="#FFFFFF" x="24.7826087" y="25.7807586" width="40.4347826" height="40.431764" rx="3.13016949"></rect>
                        </g>
                        <g id="Group" opacity="0.25" transform="translate(1309.000000, 240.000000)">
                            <g id="Group-2" fill="#9B9B9B">
                                <rect id="Rectangle" x="0" y="1" width="25.9509202" height="89.9932812" rx="7.2"></rect>
                                <rect id="Rectangle" transform="translate(45.000000, 78.018790) rotate(90.000000) translate(-45.000000, -78.018790) " x="32.0245399" y="33.0221491" width="25.9509202" height="89.9932812" rx="7.2"></rect>
                                <rect id="Rectangle" x="64.0490798" y="1" width="25.9509202" height="89.9932812" rx="7.2"></rect>
                                <rect id="Rectangle" transform="translate(45.000000, 13.974491) rotate(90.000000) translate(-45.000000, -13.974491) " x="32.0245399" y="-31.0221491" width="25.9509202" height="89.9932812" rx="7.2"></rect>
                            </g>
                            <rect id="Rectangle-3" fill="#FFFFFF" x="24.7826087" y="25.7807586" width="40.4347826" height="40.431764" rx="3.13016949"></rect>
                        </g>
                        <g id="Group" transform="translate(595.000000, 120.000000)">
                            <g id="Group-2" fill="#66BFBF">
                                <rect id="Rectangle" x="0" y="1" width="25.9509202" height="89.9932812" rx="7.2"></rect>
                                <rect id="Rectangle" transform="translate(45.000000, 78.018790) rotate(90.000000) translate(-45.000000, -78.018790) " x="32.0245399" y="33.0221491" width="25.9509202" height="89.9932812" rx="7.2"></rect>
                                <rect id="Rectangle" x="64.0490798" y="1" width="25.9509202" height="89.9932812" rx="7.2"></rect>
                                <rect id="Rectangle" transform="translate(45.000000, 13.974491) rotate(90.000000) translate(-45.000000, -13.974491) " x="32.0245399" y="-31.0221491" width="25.9509202" height="89.9932812" rx="7.2"></rect>
                            </g>
                            <rect id="Rectangle-3" fill="#FFFFFF" x="24.7826087" y="25.7807586" width="40.4347826" height="40.431764" rx="3.13016949"></rect>
                        </g>
                        <g id="Group" opacity="0.4" transform="translate(833.000000, 120.000000)">
                            <g id="Group-2" fill="#9B9B9B">
                                <rect id="Rectangle" x="0" y="1" width="25.9509202" height="89.9932812" rx="7.2"></rect>
                                <rect id="Rectangle" transform="translate(45.000000, 78.018790) rotate(90.000000) translate(-45.000000, -78.018790) " x="32.0245399" y="33.0221491" width="25.9509202" height="89.9932812" rx="7.2"></rect>
                                <rect id="Rectangle" x="64.0490798" y="1" width="25.9509202" height="89.9932812" rx="7.2"></rect>
                                <rect id="Rectangle" transform="translate(45.000000, 13.974491) rotate(90.000000) translate(-45.000000, -13.974491) " x="32.0245399" y="-31.0221491" width="25.9509202" height="89.9932812" rx="7.2"></rect>
                            </g>
                            <rect id="Rectangle-3" fill="#FFFFFF" x="24.7826087" y="25.7807586" width="40.4347826" height="40.431764" rx="3.13016949"></rect>
                        </g>
                        <g id="Group" opacity="0.4" transform="translate(952.000000, 120.000000)">
                            <g id="Group-2" fill="#9B9B9B">
                                <rect id="Rectangle" x="0" y="1" width="25.9509202" height="89.9932812" rx="7.2"></rect>
                                <rect id="Rectangle" transform="translate(45.000000, 78.018790) rotate(90.000000) translate(-45.000000, -78.018790) " x="32.0245399" y="33.0221491" width="25.9509202" height="89.9932812" rx="7.2"></rect>
                                <rect id="Rectangle" x="64.0490798" y="1" width="25.9509202" height="89.9932812" rx="7.2"></rect>
                                <rect id="Rectangle" transform="translate(45.000000, 13.974491) rotate(90.000000) translate(-45.000000, -13.974491) " x="32.0245399" y="-31.0221491" width="25.9509202" height="89.9932812" rx="7.2"></rect>
                            </g>
                            <rect id="Rectangle-3" fill="#FFFFFF" x="24.7826087" y="25.7807586" width="40.4347826" height="40.431764" rx="3.13016949"></rect>
                        </g>
                        <g id="Group" opacity="0.4" transform="translate(1071.000000, 120.000000)">
                            <g id="Group-2" fill="#9B9B9B">
                                <rect id="Rectangle" x="0" y="1" width="25.9509202" height="89.9932812" rx="7.2"></rect>
                                <rect id="Rectangle" transform="translate(45.000000, 78.018790) rotate(90.000000) translate(-45.000000, -78.018790) " x="32.0245399" y="33.0221491" width="25.9509202" height="89.9932812" rx="7.2"></rect>
                                <rect id="Rectangle" x="64.0490798" y="1" width="25.9509202" height="89.9932812" rx="7.2"></rect>
                                <rect id="Rectangle" transform="translate(45.000000, 13.974491) rotate(90.000000) translate(-45.000000, -13.974491) " x="32.0245399" y="-31.0221491" width="25.9509202" height="89.9932812" rx="7.2"></rect>
                            </g>
                            <rect id="Rectangle-3" fill="#FFFFFF" x="24.7826087" y="25.7807586" width="40.4347826" height="40.431764" rx="3.13016949"></rect>
                        </g>
                        <g id="Group" opacity="0.4" transform="translate(1309.000000, 120.000000)">
                            <g id="Group-2" fill="#9B9B9B">
                                <rect id="Rectangle" x="0" y="1" width="25.9509202" height="89.9932812" rx="7.2"></rect>
                                <rect id="Rectangle" transform="translate(45.000000, 78.018790) rotate(90.000000) translate(-45.000000, -78.018790) " x="32.0245399" y="33.0221491" width="25.9509202" height="89.9932812" rx="7.2"></rect>
                                <rect id="Rectangle" x="64.0490798" y="1" width="25.9509202" height="89.9932812" rx="7.2"></rect>
                                <rect id="Rectangle" transform="translate(45.000000, 13.974491) rotate(90.000000) translate(-45.000000, -13.974491) " x="32.0245399" y="-31.0221491" width="25.9509202" height="89.9932812" rx="7.2"></rect>
                            </g>
                            <rect id="Rectangle-3" fill="#FFFFFF" x="24.7826087" y="25.7807586" width="40.4347826" height="40.431764" rx="3.13016949"></rect>
                        </g>
                        <g id="Group" opacity="0.15" transform="translate(1428.000000, 360.000000)">
                            <g id="Group-2" fill="#9B9B9B">
                                <rect id="Rectangle" x="0" y="1" width="25.9509202" height="89.9932812" rx="7.2"></rect>
                                <rect id="Rectangle" transform="translate(45.000000, 78.018790) rotate(90.000000) translate(-45.000000, -78.018790) " x="32.0245399" y="33.0221491" width="25.9509202" height="89.9932812" rx="7.2"></rect>
                                <rect id="Rectangle" x="64.0490798" y="1" width="25.9509202" height="89.9932812" rx="7.2"></rect>
                                <rect id="Rectangle" transform="translate(45.000000, 13.974491) rotate(90.000000) translate(-45.000000, -13.974491) " x="32.0245399" y="-31.0221491" width="25.9509202" height="89.9932812" rx="7.2"></rect>
                            </g>
                            <rect id="Rectangle-3" fill="#FFFFFF" x="24.7826087" y="25.7807586" width="40.4347826" height="40.431764" rx="3.13016949"></rect>
                        </g>
                        <g id="Group" opacity="0.25" transform="translate(1428.000000, 240.000000)">
                            <g id="Group-2" fill="#9B9B9B">
                                <rect id="Rectangle" x="0" y="1" width="25.9509202" height="89.9932812" rx="7.2"></rect>
                                <rect id="Rectangle" transform="translate(45.000000, 78.018790) rotate(90.000000) translate(-45.000000, -78.018790) " x="32.0245399" y="33.0221491" width="25.9509202" height="89.9932812" rx="7.2"></rect>
                                <rect id="Rectangle" x="64.0490798" y="1" width="25.9509202" height="89.9932812" rx="7.2"></rect>
                                <rect id="Rectangle" transform="translate(45.000000, 13.974491) rotate(90.000000) translate(-45.000000, -13.974491) " x="32.0245399" y="-31.0221491" width="25.9509202" height="89.9932812" rx="7.2"></rect>
                            </g>
                            <rect id="Rectangle-3" fill="#FFFFFF" x="24.7826087" y="25.7807586" width="40.4347826" height="40.431764" rx="3.13016949"></rect>
                        </g>
                        <g id="Group" opacity="0.4" transform="translate(1428.000000, 120.000000)">
                            <g id="Group-2" fill="#9B9B9B">
                                <rect id="Rectangle" x="0" y="1" width="25.9509202" height="89.9932812" rx="7.2"></rect>
                                <rect id="Rectangle" transform="translate(45.000000, 78.018790) rotate(90.000000) translate(-45.000000, -78.018790) " x="32.0245399" y="33.0221491" width="25.9509202" height="89.9932812" rx="7.2"></rect>
                                <rect id="Rectangle" x="64.0490798" y="1" width="25.9509202" height="89.9932812" rx="7.2"></rect>
                                <rect id="Rectangle" transform="translate(45.000000, 13.974491) rotate(90.000000) translate(-45.000000, -13.974491) " x="32.0245399" y="-31.0221491" width="25.9509202" height="89.9932812" rx="7.2"></rect>
                            </g>
                            <rect id="Rectangle-3" fill="#FFFFFF" x="24.7826087" y="25.7807586" width="40.4347826" height="40.431764" rx="3.13016949"></rect>
                        </g>
                        <g id="Group" opacity="0.5" transform="translate(833.000000, 0.000000)">
                            <g id="Group-2" fill="#9B9B9B">
                                <rect id="Rectangle" x="0" y="1" width="25.9509202" height="89.9932812" rx="7.2"></rect>
                                <rect id="Rectangle" transform="translate(45.000000, 78.018790) rotate(90.000000) translate(-45.000000, -78.018790) " x="32.0245399" y="33.0221491" width="25.9509202" height="89.9932812" rx="7.2"></rect>
                                <rect id="Rectangle" x="64.0490798" y="1" width="25.9509202" height="89.9932812" rx="7.2"></rect>
                                <rect id="Rectangle" transform="translate(45.000000, 13.974491) rotate(90.000000) translate(-45.000000, -13.974491) " x="32.0245399" y="-31.0221491" width="25.9509202" height="89.9932812" rx="7.2"></rect>
                            </g>
                            <rect id="Rectangle-3" fill="#FFFFFF" x="24.7826087" y="25.7807586" width="40.4347826" height="40.431764" rx="3.13016949"></rect>
                        </g>
                        <g id="Group" opacity="0.5" transform="translate(952.000000, 0.000000)">
                            <g id="Group-2" fill="#9B9B9B">
                                <rect id="Rectangle" x="0" y="1" width="25.9509202" height="89.9932812" rx="7.2"></rect>
                                <rect id="Rectangle" transform="translate(45.000000, 78.018790) rotate(90.000000) translate(-45.000000, -78.018790) " x="32.0245399" y="33.0221491" width="25.9509202" height="89.9932812" rx="7.2"></rect>
                                <rect id="Rectangle" x="64.0490798" y="1" width="25.9509202" height="89.9932812" rx="7.2"></rect>
                                <rect id="Rectangle" transform="translate(45.000000, 13.974491) rotate(90.000000) translate(-45.000000, -13.974491) " x="32.0245399" y="-31.0221491" width="25.9509202" height="89.9932812" rx="7.2"></rect>
                            </g>
                            <rect id="Rectangle-3" fill="#FFFFFF" x="24.7826087" y="25.7807586" width="40.4347826" height="40.431764" rx="3.13016949"></rect>
                        </g>
                        <g id="Group" transform="translate(1309.000000, 0.000000)">
                            <g id="Group-2" fill="#4C4491">
                                <rect id="Rectangle" x="0" y="1" width="25.9509202" height="89.9932812" rx="7.2"></rect>
                                <rect id="Rectangle" transform="translate(45.000000, 78.018790) rotate(90.000000) translate(-45.000000, -78.018790) " x="32.0245399" y="33.0221491" width="25.9509202" height="89.9932812" rx="7.2"></rect>
                                <rect id="Rectangle" x="64.0490798" y="1" width="25.9509202" height="89.9932812" rx="7.2"></rect>
                                <rect id="Rectangle" transform="translate(45.000000, 13.974491) rotate(90.000000) translate(-45.000000, -13.974491) " x="32.0245399" y="-31.0221491" width="25.9509202" height="89.9932812" rx="7.2"></rect>
                            </g>
                            <rect id="Rectangle-3" fill="#FFFFFF" x="24.7826087" y="25.7807586" width="40.4347826" height="40.431764" rx="3.13016949"></rect>
                        </g>
                    </g>
                </g>
            </g>
        </g>
    </g>
</svg>