<?xml version="1.0" encoding="UTF-8" standalone="no"?>
<svg width="1994px" height="450px" viewBox="0 0 1994 450" version="1.1" xmlns="http://www.w3.org/2000/svg" xmlns:xlink="http://www.w3.org/1999/xlink">
    <!-- Generator: Sketch 41.2 (35397) - http://www.bohemiancoding.com/sketch -->
    <title>Group 4</title>
    <desc>Created with Sketch.</desc>
    <defs></defs>
    <g id="Page-1" stroke="none" stroke-width="1" fill="none" fill-rule="evenodd">
        <g id="Artboard" transform="translate(-261.000000, -383.000000)">
            <g id="Group-4" transform="translate(261.000000, 382.000000)">
                <g id="Group-3">
                    <g id="Group" opacity="0.15" transform="translate(119.000000, 360.000000)">
                        <g id="Group-2" fill="#9B9B9B">
                            <rect id="Rectangle" x="0" y="1" width="25.9509202" height="89.9932812" rx="7.2"></rect>
                            <rect id="Rectangle" transform="translate(45.000000, 78.018790) rotate(90.000000) translate(-45.000000, -78.018790) " x="32.0245399" y="33.0221491" width="25.9509202" height="89.9932812" rx="7.2"></rect>
                            <rect id="Rectangle" x="64.0490798" y="1" width="25.9509202" height="89.9932812" rx="7.2"></rect>
                            <rect id="Rectangle" transform="translate(45.000000, 13.974491) rotate(90.000000) translate(-45.000000, -13.974491) " x="32.0245399" y="-31.0221491" width="25.9509202" height="89.9932812" rx="7.2"></rect>
                        </g>
                        <rect id="Rectangle-3" fill="#FFFFFF" x="24.7826087" y="25.7807586" width="40.4347826" height="40.431764" rx="3.13016949"></rect>
                    </g>
                    <g id="Group" opacity="0.15" transform="translate(0.000000, 360.000000)">
                        <g id="Group-2" fill="#9B9B9B">
                            <rect id="Rectangle" x="0" y="1" width="25.9509202" height="89.9932812" rx="7.2"></rect>
                            <rect id="Rectangle" transform="translate(45.000000, 78.018790) rotate(90.000000) translate(-45.000000, -78.018790) " x="32.0245399" y="33.0221491" width="25.9509202" height="89.9932812" rx="7.2"></rect>
                            <rect id="Rectangle" x="64.0490798" y="1" width="25.9509202" height="89.9932812" rx="7.2"></rect>
                            <rect id="Rectangle" transform="translate(45.000000, 13.974491) rotate(90.000000) translate(-45.000000, -13.974491) " x="32.0245399" y="-31.0221491" width="25.9509202" height="89.9932812" rx="7.2"></rect>
                        </g>
                        <rect id="Rectangle-3" fill="#FFFFFF" x="24.7826087" y="25.7807586" width="40.4347826" height="40.431764" rx="3.13016949"></rect>
                    </g>
                    <g id="Group" opacity="0.15" transform="translate(238.000000, 360.000000)">
                        <g id="Group-2" fill="#9B9B9B">
                            <rect id="Rectangle" x="0" y="1" width="25.9509202" height="89.9932812" rx="7.2"></rect>
                            <rect id="Rectangle" transform="translate(45.000000, 78.018790) rotate(90.000000) translate(-45.000000, -78.018790) " x="32.0245399" y="33.0221491" width="25.9509202" height="89.9932812" rx="7.2"></rect>
                            <rect id="Rectangle" x="64.0490798" y="1" width="25.9509202" height="89.9932812" rx="7.2"></rect>
                            <rect id="Rectangle" transform="translate(45.000000, 13.974491) rotate(90.000000) translate(-45.000000, -13.974491) " x="32.0245399" y="-31.0221491" width="25.9509202" height="89.9932812" rx="7.2"></rect>
                        </g>
                        <rect id="Rectangle-3" fill="#FFFFFF" x="24.7826087" y="25.7807586" width="40.4347826" height="40.431764" rx="3.13016949"></rect>
                    </g>
                    <g id="Group" opacity="0.15" transform="translate(357.000000, 360.000000)">
                        <g id="Group-2" fill="#9B9B9B">
                            <rect id="Rectangle" x="0" y="1" width="25.9509202" height="89.9932812" rx="7.2"></rect>
                            <rect id="Rectangle" transform="translate(45.000000, 78.018790) rotate(90.000000) translate(-45.000000, -78.018790) " x="32.0245399" y="33.0221491" width="25.9509202" height="89.9932812" rx="7.2"></rect>
                            <rect id="Rectangle" x="64.0490798" y="1" width="25.9509202" height="89.9932812" rx="7.2"></rect>
                            <rect id="Rectangle" transform="translate(45.000000, 13.974491) rotate(90.000000) translate(-45.000000, -13.974491) " x="32.0245399" y="-31.0221491" width="25.9509202" height="89.9932812" rx="7.2"></rect>
                        </g>
                        <rect id="Rectangle-3" fill="#FFFFFF" x="24.7826087" y="25.7807586" width="40.4347826" height="40.431764" rx="3.13016949"></rect>
                    </g>
                    <g id="Group" opacity="0.15" transform="translate(476.000000, 360.000000)">
                        <g id="Group-2" fill="#9B9B9B">
                            <rect id="Rectangle" x="0" y="1" width="25.9509202" height="89.9932812" rx="7.2"></rect>
                            <rect id="Rectangle" transform="translate(45.000000, 78.018790) rotate(90.000000) translate(-45.000000, -78.018790) " x="32.0245399" y="33.0221491" width="25.9509202" height="89.9932812" rx="7.2"></rect>
                            <rect id="Rectangle" x="64.0490798" y="1" width="25.9509202" height="89.9932812" rx="7.2"></rect>
                            <rect id="Rectangle" transform="translate(45.000000, 13.974491) rotate(90.000000) translate(-45.000000, -13.974491) " x="32.0245399" y="-31.0221491" width="25.9509202" height="89.9932812" rx="7.2"></rect>
                        </g>
                        <rect id="Rectangle-3" fill="#FFFFFF" x="24.7826087" y="25.7807586" width="40.4347826" height="40.431764" rx="3.13016949"></rect>
                    </g>
                    <g id="Group" opacity="0.15" transform="translate(595.000000, 360.000000)">
                        <g id="Group-2" fill="#9B9B9B">
                            <rect id="Rectangle" x="0" y="1" width="25.9509202" height="89.9932812" rx="7.2"></rect>
                            <rect id="Rectangle" transform="translate(45.000000, 78.018790) rotate(90.000000) translate(-45.000000, -78.018790) " x="32.0245399" y="33.0221491" width="25.9509202" height="89.9932812" rx="7.2"></rect>
                            <rect id="Rectangle" x="64.0490798" y="1" width="25.9509202" height="89.9932812" rx="7.2"></rect>
                            <rect id="Rectangle" transform="translate(45.000000, 13.974491) rotate(90.000000) translate(-45.000000, -13.974491) " x="32.0245399" y="-31.0221491" width="25.9509202" height="89.9932812" rx="7.2"></rect>
                        </g>
                        <rect id="Rectangle-3" fill="#FFFFFF" x="24.7826087" y="25.7807586" width="40.4347826" height="40.431764" rx="3.13016949"></rect>
                    </g>
                    <g id="Group" opacity="0.15" transform="translate(714.000000, 360.000000)">
                        <g id="Group-2" fill="#9B9B9B">
                            <rect id="Rectangle" x="0" y="1" width="25.9509202" height="89.9932812" rx="7.2"></rect>
                            <rect id="Rectangle" transform="translate(45.000000, 78.018790) rotate(90.000000) translate(-45.000000, -78.018790) " x="32.0245399" y="33.0221491" width="25.9509202" height="89.9932812" rx="7.2"></rect>
                            <rect id="Rectangle" x="64.0490798" y="1" width="25.9509202" height="89.9932812" rx="7.2"></rect>
                            <rect id="Rectangle" transform="translate(45.000000, 13.974491) rotate(90.000000) translate(-45.000000, -13.974491) " x="32.0245399" y="-31.0221491" width="25.9509202" height="89.9932812" rx="7.2"></rect>
                        </g>
                        <rect id="Rectangle-3" fill="#FFFFFF" x="24.7826087" y="25.7807586" width="40.4347826" height="40.431764" rx="3.13016949"></rect>
                    </g>
                    <g id="Group" opacity="0.15" transform="translate(833.000000, 360.000000)">
                        <g id="Group-2" fill="#9B9B9B">
                            <rect id="Rectangle" x="0" y="1" width="25.9509202" height="89.9932812" rx="7.2"></rect>
                            <rect id="Rectangle" transform="translate(45.000000, 78.018790) rotate(90.000000) translate(-45.000000, -78.018790) " x="32.0245399" y="33.0221491" width="25.9509202" height="89.9932812" rx="7.2"></rect>
                            <rect id="Rectangle" x="64.0490798" y="1" width="25.9509202" height="89.9932812" rx="7.2"></rect>
                            <rect id="Rectangle" transform="translate(45.000000, 13.974491) rotate(90.000000) translate(-45.000000, -13.974491) " x="32.0245399" y="-31.0221491" width="25.9509202" height="89.9932812" rx="7.2"></rect>
                        </g>
                        <rect id="Rectangle-3" fill="#FFFFFF" x="24.7826087" y="25.7807586" width="40.4347826" height="40.431764" rx="3.13016949"></rect>
                    </g>
                    <g id="Group" opacity="0.15" transform="translate(952.000000, 360.000000)">
                        <g id="Group-2" fill="#9B9B9B">
                            <rect id="Rectangle" x="0" y="1" width="25.9509202" height="89.9932812" rx="7.2"></rect>
                            <rect id="Rectangle" transform="translate(45.000000, 78.018790) rotate(90.000000) translate(-45.000000, -78.018790) " x="32.0245399" y="33.0221491" width="25.9509202" height="89.9932812" rx="7.2"></rect>
                            <rect id="Rectangle" x="64.0490798" y="1" width="25.9509202" height="89.9932812" rx="7.2"></rect>
                            <rect id="Rectangle" transform="translate(45.000000, 13.974491) rotate(90.000000) translate(-45.000000, -13.974491) " x="32.0245399" y="-31.0221491" width="25.9509202" height="89.9932812" rx="7.2"></rect>
                        </g>
                        <rect id="Rectangle-3" fill="#FFFFFF" x="24.7826087" y="25.7807586" width="40.4347826" height="40.431764" rx="3.13016949"></rect>
                    </g>
                    <g id="Group" opacity="0.15" transform="translate(1071.000000, 360.000000)">
                        <g id="Group-2" fill="#9B9B9B">
                            <rect id="Rectangle" x="0" y="1" width="25.9509202" height="89.9932812" rx="7.2"></rect>
                            <rect id="Rectangle" transform="translate(45.000000, 78.018790) rotate(90.000000) translate(-45.000000, -78.018790) " x="32.0245399" y="33.0221491" width="25.9509202" height="89.9932812" rx="7.2"></rect>
                            <rect id="Rectangle" x="64.0490798" y="1" width="25.9509202" height="89.9932812" rx="7.2"></rect>
                            <rect id="Rectangle" transform="translate(45.000000, 13.974491) rotate(90.000000) translate(-45.000000, -13.974491) " x="32.0245399" y="-31.0221491" width="25.9509202" height="89.9932812" rx="7.2"></rect>
                        </g>
                        <rect id="Rectangle-3" fill="#FFFFFF" x="24.7826087" y="25.7807586" width="40.4347826" height="40.431764" rx="3.13016949"></rect>
                    </g>
                    <g id="Group" opacity="0.15" transform="translate(1190.000000, 360.000000)">
                        <g id="Group-2" fill="#9B9B9B">
                            <rect id="Rectangle" x="0" y="1" width="25.9509202" height="89.9932812" rx="7.2"></rect>
                            <rect id="Rectangle" transform="translate(45.000000, 78.018790) rotate(90.000000) translate(-45.000000, -78.018790) " x="32.0245399" y="33.0221491" width="25.9509202" height="89.9932812" rx="7.2"></rect>
                            <rect id="Rectangle" x="64.0490798" y="1" width="25.9509202" height="89.9932812" rx="7.2"></rect>
                            <rect id="Rectangle" transform="translate(45.000000, 13.974491) rotate(90.000000) translate(-45.000000, -13.974491) " x="32.0245399" y="-31.0221491" width="25.9509202" height="89.9932812" rx="7.2"></rect>
                        </g>
                        <rect id="Rectangle-3" fill="#FFFFFF" x="24.7826087" y="25.7807586" width="40.4347826" height="40.431764" rx="3.13016949"></rect>
                    </g>
                    <g id="Group" opacity="0.15" transform="translate(1309.000000, 360.000000)">
                        <g id="Group-2" fill="#9B9B9B">
                            <rect id="Rectangle" x="0" y="1" width="25.9509202" height="89.9932812" rx="7.2"></rect>
                            <rect id="Rectangle" transform="translate(45.000000, 78.018790) rotate(90.000000) translate(-45.000000, -78.018790) " x="32.0245399" y="33.0221491" width="25.9509202" height="89.9932812" rx="7.2"></rect>
                            <rect id="Rectangle" x="64.0490798" y="1" width="25.9509202" height="89.9932812" rx="7.2"></rect>
                            <rect id="Rectangle" transform="translate(45.000000, 13.974491) rotate(90.000000) translate(-45.000000, -13.974491) " x="32.0245399" y="-31.0221491" width="25.9509202" height="89.9932812" rx="7.2"></rect>
                        </g>
                        <rect id="Rectangle-3" fill="#FFFFFF" x="24.7826087" y="25.7807586" width="40.4347826" height="40.431764" rx="3.13016949"></rect>
                    </g>
                    <g id="Group" opacity="0.15" transform="translate(1428.000000, 360.000000)">
                        <g id="Group-2" fill="#9B9B9B">
                            <rect id="Rectangle" x="0" y="1" width="25.9509202" height="89.9932812" rx="7.2"></rect>
                            <rect id="Rectangle" transform="translate(45.000000, 78.018790) rotate(90.000000) translate(-45.000000, -78.018790) " x="32.0245399" y="33.0221491" width="25.9509202" height="89.9932812" rx="7.2"></rect>
                            <rect id="Rectangle" x="64.0490798" y="1" width="25.9509202" height="89.9932812" rx="7.2"></rect>
                            <rect id="Rectangle" transform="translate(45.000000, 13.974491) rotate(90.000000) translate(-45.000000, -13.974491) " x="32.0245399" y="-31.0221491" width="25.9509202" height="89.9932812" rx="7.2"></rect>
                        </g>
                        <rect id="Rectangle-3" fill="#FFFFFF" x="24.7826087" y="25.7807586" width="40.4347826" height="40.431764" rx="3.13016949"></rect>
                    </g>
                    <g id="Group" opacity="0.15" transform="translate(1547.000000, 360.000000)">
                        <g id="Group-2" fill="#9B9B9B">
                            <rect id="Rectangle" x="0" y="1" width="25.9509202" height="89.9932812" rx="7.2"></rect>
                            <rect id="Rectangle" transform="translate(45.000000, 78.018790) rotate(90.000000) translate(-45.000000, -78.018790) " x="32.0245399" y="33.0221491" width="25.9509202" height="89.9932812" rx="7.2"></rect>
                            <rect id="Rectangle" x="64.0490798" y="1" width="25.9509202" height="89.9932812" rx="7.2"></rect>
                            <rect id="Rectangle" transform="translate(45.000000, 13.974491) rotate(90.000000) translate(-45.000000, -13.974491) " x="32.0245399" y="-31.0221491" width="25.9509202" height="89.9932812" rx="7.2"></rect>
                        </g>
                        <rect id="Rectangle-3" fill="#FFFFFF" x="24.7826087" y="25.7807586" width="40.4347826" height="40.431764" rx="3.13016949"></rect>
                    </g>
                    <g id="Group" opacity="0.25" transform="translate(833.000000, 240.000000)">
                        <g id="Group-2" fill="#9B9B9B">
                            <rect id="Rectangle" x="0" y="1" width="25.9509202" height="89.9932812" rx="7.2"></rect>
                            <rect id="Rectangle" transform="translate(45.000000, 78.018790) rotate(90.000000) translate(-45.000000, -78.018790) " x="32.0245399" y="33.0221491" width="25.9509202" height="89.9932812" rx="7.2"></rect>
                            <rect id="Rectangle" x="64.0490798" y="1" width="25.9509202" height="89.9932812" rx="7.2"></rect>
                            <rect id="Rectangle" transform="translate(45.000000, 13.974491) rotate(90.000000) translate(-45.000000, -13.974491) " x="32.0245399" y="-31.0221491" width="25.9509202" height="89.9932812" rx="7.2"></rect>
                        </g>
                        <rect id="Rectangle-3" fill="#FFFFFF" x="24.7826087" y="25.7807586" width="40.4347826" height="40.431764" rx="3.13016949"></rect>
                    </g>
                    <g id="Group" opacity="0.25" transform="translate(952.000000, 240.000000)">
                        <g id="Group-2" fill="#9B9B9B">
                            <rect id="Rectangle" x="0" y="1" width="25.9509202" height="89.9932812" rx="7.2"></rect>
                            <rect id="Rectangle" transform="translate(45.000000, 78.018790) rotate(90.000000) translate(-45.000000, -78.018790) " x="32.0245399" y="33.0221491" width="25.9509202" height="89.9932812" rx="7.2"></rect>
                            <rect id="Rectangle" x="64.0490798" y="1" width="25.9509202" height="89.9932812" rx="7.2"></rect>
                            <rect id="Rectangle" transform="translate(45.000000, 13.974491) rotate(90.000000) translate(-45.000000, -13.974491) " x="32.0245399" y="-31.0221491" width="25.9509202" height="89.9932812" rx="7.2"></rect>
                        </g>
                        <rect id="Rectangle-3" fill="#FFFFFF" x="24.7826087" y="25.7807586" width="40.4347826" height="40.431764" rx="3.13016949"></rect>
                    </g>
                    <g id="Group" opacity="0.25" transform="translate(595.000000, 240.000000)">
                        <g id="Group-2" fill="#9B9B9B">
                            <rect id="Rectangle" x="0" y="1" width="25.9509202" height="89.9932812" rx="7.2"></rect>
                            <rect id="Rectangle" transform="translate(45.000000, 78.018790) rotate(90.000000) translate(-45.000000, -78.018790) " x="32.0245399" y="33.0221491" width="25.9509202" height="89.9932812" rx="7.2"></rect>
                            <rect id="Rectangle" x="64.0490798" y="1" width="25.9509202" height="89.9932812" rx="7.2"></rect>
                            <rect id="Rectangle" transform="translate(45.000000, 13.974491) rotate(90.000000) translate(-45.000000, -13.974491) " x="32.0245399" y="-31.0221491" width="25.9509202" height="89.9932812" rx="7.2"></rect>
                        </g>
                        <rect id="Rectangle-3" fill="#FFFFFF" x="24.7826087" y="25.7807586" width="40.4347826" height="40.431764" rx="3.13016949"></rect>
                    </g>
                    <g id="Group" opacity="0.25" transform="translate(714.000000, 240.000000)">
                        <g id="Group-2" fill="#9B9B9B">
                            <rect id="Rectangle" x="0" y="1" width="25.9509202" height="89.9932812" rx="7.2"></rect>
                            <rect id="Rectangle" transform="translate(45.000000, 78.018790) rotate(90.000000) translate(-45.000000, -78.018790) " x="32.0245399" y="33.0221491" width="25.9509202" height="89.9932812" rx="7.2"></rect>
                            <rect id="Rectangle" x="64.0490798" y="1" width="25.9509202" height="89.9932812" rx="7.2"></rect>
                            <rect id="Rectangle" transform="translate(45.000000, 13.974491) rotate(90.000000) translate(-45.000000, -13.974491) " x="32.0245399" y="-31.0221491" width="25.9509202" height="89.9932812" rx="7.2"></rect>
                        </g>
                        <rect id="Rectangle-3" fill="#FFFFFF" x="24.7826087" y="25.7807586" width="40.4347826" height="40.431764" rx="3.13016949"></rect>
                    </g>
                    <g id="Group" transform="translate(476.000000, 240.000000)">
                        <g id="Group-2" fill="#FD5C63">
                            <rect id="Rectangle" x="0" y="1" width="25.9509202" height="89.9932812" rx="7.2"></rect>
                            <rect id="Rectangle" transform="translate(45.000000, 78.018790) rotate(90.000000) translate(-45.000000, -78.018790) " x="32.0245399" y="33.0221491" width="25.9509202" height="89.9932812" rx="7.2"></rect>
                            <rect id="Rectangle" x="64.0490798" y="1" width="25.9509202" height="89.9932812" rx="7.2"></rect>
                            <rect id="Rectangle" transform="translate(45.000000, 13.974491) rotate(90.000000) translate(-45.000000, -13.974491) " x="32.0245399" y="-31.0221491" width="25.9509202" height="89.9932812" rx="7.2"></rect>
                        </g>
                        <rect id="Rectangle-3" fill="#FFFFFF" x="24.7826087" y="25.7807586" width="40.4347826" height="40.431764" rx="3.13016949"></rect>
                    </g>
                    <g id="Group" opacity="0.25" transform="translate(1071.000000, 240.000000)">
                        <g id="Group-2" fill="#9B9B9B">
                            <rect id="Rectangle" x="0" y="1" width="25.9509202" height="89.9932812" rx="7.2"></rect>
                            <rect id="Rectangle" transform="translate(45.000000, 78.018790) rotate(90.000000) translate(-45.000000, -78.018790) " x="32.0245399" y="33.0221491" width="25.9509202" height="89.9932812" rx="7.2"></rect>
                            <rect id="Rectangle" x="64.0490798" y="1" width="25.9509202" height="89.9932812" rx="7.2"></rect>
                            <rect id="Rectangle" transform="translate(45.000000, 13.974491) rotate(90.000000) translate(-45.000000, -13.974491) " x="32.0245399" y="-31.0221491" width="25.9509202" height="89.9932812" rx="7.2"></rect>
                        </g>
                        <rect id="Rectangle-3" fill="#FFFFFF" x="24.7826087" y="25.7807586" width="40.4347826" height="40.431764" rx="3.13016949"></rect>
                    </g>
                    <g id="Group" opacity="0.25" transform="translate(1190.000000, 240.000000)">
                        <g id="Group-2" fill="#9B9B9B">
                            <rect id="Rectangle" x="0" y="1" width="25.9509202" height="89.9932812" rx="7.2"></rect>
                            <rect id="Rectangle" transform="translate(45.000000, 78.018790) rotate(90.000000) translate(-45.000000, -78.018790) " x="32.0245399" y="33.0221491" width="25.9509202" height="89.9932812" rx="7.2"></rect>
                            <rect id="Rectangle" x="64.0490798" y="1" width="25.9509202" height="89.9932812" rx="7.2"></rect>
                            <rect id="Rectangle" transform="translate(45.000000, 13.974491) rotate(90.000000) translate(-45.000000, -13.974491) " x="32.0245399" y="-31.0221491" width="25.9509202" height="89.9932812" rx="7.2"></rect>
                        </g>
                        <rect id="Rectangle-3" fill="#FFFFFF" x="24.7826087" y="25.7807586" width="40.4347826" height="40.431764" rx="3.13016949"></rect>
                    </g>
                    <g id="Group" opacity="0.25" transform="translate(1309.000000, 240.000000)">
                        <g id="Group-2" fill="#9B9B9B">
                            <rect id="Rectangle" x="0" y="1" width="25.9509202" height="89.9932812" rx="7.2"></rect>
                            <rect id="Rectangle" transform="translate(45.000000, 78.018790) rotate(90.000000) translate(-45.000000, -78.018790) " x="32.0245399" y="33.0221491" width="25.9509202" height="89.9932812" rx="7.2"></rect>
                            <rect id="Rectangle" x="64.0490798" y="1" width="25.9509202" height="89.9932812" rx="7.2"></rect>
                            <rect id="Rectangle" transform="translate(45.000000, 13.974491) rotate(90.000000) translate(-45.000000, -13.974491) " x="32.0245399" y="-31.0221491" width="25.9509202" height="89.9932812" rx="7.2"></rect>
                        </g>
                        <rect id="Rectangle-3" fill="#FFFFFF" x="24.7826087" y="25.7807586" width="40.4347826" height="40.431764" rx="3.13016949"></rect>
                    </g>
                    <g id="Group" opacity="0.25" transform="translate(1428.000000, 240.000000)">
                        <g id="Group-2" fill="#9B9B9B">
                            <rect id="Rectangle" x="0" y="1" width="25.9509202" height="89.9932812" rx="7.2"></rect>
                            <rect id="Rectangle" transform="translate(45.000000, 78.018790) rotate(90.000000) translate(-45.000000, -78.018790) " x="32.0245399" y="33.0221491" width="25.9509202" height="89.9932812" rx="7.2"></rect>
                            <rect id="Rectangle" x="64.0490798" y="1" width="25.9509202" height="89.9932812" rx="7.2"></rect>
                            <rect id="Rectangle" transform="translate(45.000000, 13.974491) rotate(90.000000) translate(-45.000000, -13.974491) " x="32.0245399" y="-31.0221491" width="25.9509202" height="89.9932812" rx="7.2"></rect>
                        </g>
                        <rect id="Rectangle-3" fill="#FFFFFF" x="24.7826087" y="25.7807586" width="40.4347826" height="40.431764" rx="3.13016949"></rect>
                    </g>
                    <g id="Group" opacity="0.25" transform="translate(1547.000000, 240.000000)">
                        <g id="Group-2" fill="#9B9B9B">
                            <rect id="Rectangle" x="0" y="1" width="25.9509202" height="89.9932812" rx="7.2"></rect>
                            <rect id="Rectangle" transform="translate(45.000000, 78.018790) rotate(90.000000) translate(-45.000000, -78.018790) " x="32.0245399" y="33.0221491" width="25.9509202" height="89.9932812" rx="7.2"></rect>
                            <rect id="Rectangle" x="64.0490798" y="1" width="25.9509202" height="89.9932812" rx="7.2"></rect>
                            <rect id="Rectangle" transform="translate(45.000000, 13.974491) rotate(90.000000) translate(-45.000000, -13.974491) " x="32.0245399" y="-31.0221491" width="25.9509202" height="89.9932812" rx="7.2"></rect>
                        </g>
                        <rect id="Rectangle-3" fill="#FFFFFF" x="24.7826087" y="25.7807586" width="40.4347826" height="40.431764" rx="3.13016949"></rect>
                    </g>
                    <g id="Group" transform="translate(833.000000, 120.000000)">
                        <g id="Group-2" fill="#66BFBF">
                            <rect id="Rectangle" x="0" y="1" width="25.9509202" height="89.9932812" rx="7.2"></rect>
                            <rect id="Rectangle" transform="translate(45.000000, 78.018790) rotate(90.000000) translate(-45.000000, -78.018790) " x="32.0245399" y="33.0221491" width="25.9509202" height="89.9932812" rx="7.2"></rect>
                            <rect id="Rectangle" x="64.0490798" y="1" width="25.9509202" height="89.9932812" rx="7.2"></rect>
                            <rect id="Rectangle" transform="translate(45.000000, 13.974491) rotate(90.000000) translate(-45.000000, -13.974491) " x="32.0245399" y="-31.0221491" width="25.9509202" height="89.9932812" rx="7.2"></rect>
                        </g>
                        <rect id="Rectangle-3" fill="#FFFFFF" x="24.7826087" y="25.7807586" width="40.4347826" height="40.431764" rx="3.13016949"></rect>
                    </g>
                    <g id="Group" opacity="0.4" transform="translate(1071.000000, 120.000000)">
                        <g id="Group-2" fill="#9B9B9B">
                            <rect id="Rectangle" x="0" y="1" width="25.9509202" height="89.9932812" rx="7.2"></rect>
                            <rect id="Rectangle" transform="translate(45.000000, 78.018790) rotate(90.000000) translate(-45.000000, -78.018790) " x="32.0245399" y="33.0221491" width="25.9509202" height="89.9932812" rx="7.2"></rect>
                            <rect id="Rectangle" x="64.0490798" y="1" width="25.9509202" height="89.9932812" rx="7.2"></rect>
                            <rect id="Rectangle" transform="translate(45.000000, 13.974491) rotate(90.000000) translate(-45.000000, -13.974491) " x="32.0245399" y="-31.0221491" width="25.9509202" height="89.9932812" rx="7.2"></rect>
                        </g>
                        <rect id="Rectangle-3" fill="#FFFFFF" x="24.7826087" y="25.7807586" width="40.4347826" height="40.431764" rx="3.13016949"></rect>
                    </g>
                    <g id="Group" opacity="0.4" transform="translate(1190.000000, 120.000000)">
                        <g id="Group-2" fill="#9B9B9B">
                            <rect id="Rectangle" x="0" y="1" width="25.9509202" height="89.9932812" rx="7.2"></rect>
                            <rect id="Rectangle" transform="translate(45.000000, 78.018790) rotate(90.000000) translate(-45.000000, -78.018790) " x="32.0245399" y="33.0221491" width="25.9509202" height="89.9932812" rx="7.2"></rect>
                            <rect id="Rectangle" x="64.0490798" y="1" width="25.9509202" height="89.9932812" rx="7.2"></rect>
                            <rect id="Rectangle" transform="translate(45.000000, 13.974491) rotate(90.000000) translate(-45.000000, -13.974491) " x="32.0245399" y="-31.0221491" width="25.9509202" height="89.9932812" rx="7.2"></rect>
                        </g>
                        <rect id="Rectangle-3" fill="#FFFFFF" x="24.7826087" y="25.7807586" width="40.4347826" height="40.431764" rx="3.13016949"></rect>
                    </g>
                    <g id="Group" opacity="0.4" transform="translate(1309.000000, 120.000000)">
                        <g id="Group-2" fill="#9B9B9B">
                            <rect id="Rectangle" x="0" y="1" width="25.9509202" height="89.9932812" rx="7.2"></rect>
                            <rect id="Rectangle" transform="translate(45.000000, 78.018790) rotate(90.000000) translate(-45.000000, -78.018790) " x="32.0245399" y="33.0221491" width="25.9509202" height="89.9932812" rx="7.2"></rect>
                            <rect id="Rectangle" x="64.0490798" y="1" width="25.9509202" height="89.9932812" rx="7.2"></rect>
                            <rect id="Rectangle" transform="translate(45.000000, 13.974491) rotate(90.000000) translate(-45.000000, -13.974491) " x="32.0245399" y="-31.0221491" width="25.9509202" height="89.9932812" rx="7.2"></rect>
                        </g>
                        <rect id="Rectangle-3" fill="#FFFFFF" x="24.7826087" y="25.7807586" width="40.4347826" height="40.431764" rx="3.13016949"></rect>
                    </g>
                    <g id="Group" opacity="0.4" transform="translate(1547.000000, 120.000000)">
                        <g id="Group-2" fill="#9B9B9B">
                            <rect id="Rectangle" x="0" y="1" width="25.9509202" height="89.9932812" rx="7.2"></rect>
                            <rect id="Rectangle" transform="translate(45.000000, 78.018790) rotate(90.000000) translate(-45.000000, -78.018790) " x="32.0245399" y="33.0221491" width="25.9509202" height="89.9932812" rx="7.2"></rect>
                            <rect id="Rectangle" x="64.0490798" y="1" width="25.9509202" height="89.9932812" rx="7.2"></rect>
                            <rect id="Rectangle" transform="translate(45.000000, 13.974491) rotate(90.000000) translate(-45.000000, -13.974491) " x="32.0245399" y="-31.0221491" width="25.9509202" height="89.9932812" rx="7.2"></rect>
                        </g>
                        <rect id="Rectangle-3" fill="#FFFFFF" x="24.7826087" y="25.7807586" width="40.4347826" height="40.431764" rx="3.13016949"></rect>
                    </g>
                    <g id="Group" opacity="0.15" transform="translate(1666.000000, 360.000000)">
                        <g id="Group-2" fill="#9B9B9B">
                            <rect id="Rectangle" x="0" y="1" width="25.9509202" height="89.9932812" rx="7.2"></rect>
                            <rect id="Rectangle" transform="translate(45.000000, 78.018790) rotate(90.000000) translate(-45.000000, -78.018790) " x="32.0245399" y="33.0221491" width="25.9509202" height="89.9932812" rx="7.2"></rect>
                            <rect id="Rectangle" x="64.0490798" y="1" width="25.9509202" height="89.9932812" rx="7.2"></rect>
                            <rect id="Rectangle" transform="translate(45.000000, 13.974491) rotate(90.000000) translate(-45.000000, -13.974491) " x="32.0245399" y="-31.0221491" width="25.9509202" height="89.9932812" rx="7.2"></rect>
                        </g>
                        <rect id="Rectangle-3" fill="#FFFFFF" x="24.7826087" y="25.7807586" width="40.4347826" height="40.431764" rx="3.13016949"></rect>
                    </g>
                    <g id="Group" opacity="0.25" transform="translate(1666.000000, 240.000000)">
                        <g id="Group-2" fill="#9B9B9B">
                            <rect id="Rectangle" x="0" y="1" width="25.9509202" height="89.9932812" rx="7.2"></rect>
                            <rect id="Rectangle" transform="translate(45.000000, 78.018790) rotate(90.000000) translate(-45.000000, -78.018790) " x="32.0245399" y="33.0221491" width="25.9509202" height="89.9932812" rx="7.2"></rect>
                            <rect id="Rectangle" x="64.0490798" y="1" width="25.9509202" height="89.9932812" rx="7.2"></rect>
                            <rect id="Rectangle" transform="translate(45.000000, 13.974491) rotate(90.000000) translate(-45.000000, -13.974491) " x="32.0245399" y="-31.0221491" width="25.9509202" height="89.9932812" rx="7.2"></rect>
                        </g>
                        <rect id="Rectangle-3" fill="#FFFFFF" x="24.7826087" y="25.7807586" width="40.4347826" height="40.431764" rx="3.13016949"></rect>
                    </g>
                    <g id="Group" opacity="0.15" transform="translate(1785.000000, 360.000000)">
                        <g id="Group-2" fill="#9B9B9B">
                            <rect id="Rectangle" x="0" y="1" width="25.9509202" height="89.9932812" rx="7.2"></rect>
                            <rect id="Rectangle" transform="translate(45.000000, 78.018790) rotate(90.000000) translate(-45.000000, -78.018790) " x="32.0245399" y="33.0221491" width="25.9509202" height="89.9932812" rx="7.2"></rect>
                            <rect id="Rectangle" x="64.0490798" y="1" width="25.9509202" height="89.9932812" rx="7.2"></rect>
                            <rect id="Rectangle" transform="translate(45.000000, 13.974491) rotate(90.000000) translate(-45.000000, -13.974491) " x="32.0245399" y="-31.0221491" width="25.9509202" height="89.9932812" rx="7.2"></rect>
                        </g>
                        <rect id="Rectangle-3" fill="#FFFFFF" x="24.7826087" y="25.7807586" width="40.4347826" height="40.431764" rx="3.13016949"></rect>
                    </g>
                    <g id="Group" opacity="0.15" transform="translate(1904.000000, 360.000000)">
                        <g id="Group-2" fill="#9B9B9B">
                            <rect id="Rectangle" x="0" y="1" width="25.9509202" height="89.9932812" rx="7.2"></rect>
                            <rect id="Rectangle" transform="translate(45.000000, 78.018790) rotate(90.000000) translate(-45.000000, -78.018790) " x="32.0245399" y="33.0221491" width="25.9509202" height="89.9932812" rx="7.2"></rect>
                            <rect id="Rectangle" x="64.0490798" y="1" width="25.9509202" height="89.9932812" rx="7.2"></rect>
                            <rect id="Rectangle" transform="translate(45.000000, 13.974491) rotate(90.000000) translate(-45.000000, -13.974491) " x="32.0245399" y="-31.0221491" width="25.9509202" height="89.9932812" rx="7.2"></rect>
                        </g>
                        <rect id="Rectangle-3" fill="#FFFFFF" x="24.7826087" y="25.7807586" width="40.4347826" height="40.431764" rx="3.13016949"></rect>
                    </g>
                    <g id="Group" opacity="0.25" transform="translate(1785.000000, 240.000000)">
                        <g id="Group-2" fill="#9B9B9B">
                            <rect id="Rectangle" x="0" y="1" width="25.9509202" height="89.9932812" rx="7.2"></rect>
                            <rect id="Rectangle" transform="translate(45.000000, 78.018790) rotate(90.000000) translate(-45.000000, -78.018790) " x="32.0245399" y="33.0221491" width="25.9509202" height="89.9932812" rx="7.2"></rect>
                            <rect id="Rectangle" x="64.0490798" y="1" width="25.9509202" height="89.9932812" rx="7.2"></rect>
                            <rect id="Rectangle" transform="translate(45.000000, 13.974491) rotate(90.000000) translate(-45.000000, -13.974491) " x="32.0245399" y="-31.0221491" width="25.9509202" height="89.9932812" rx="7.2"></rect>
                        </g>
                        <rect id="Rectangle-3" fill="#FFFFFF" x="24.7826087" y="25.7807586" width="40.4347826" height="40.431764" rx="3.13016949"></rect>
                    </g>
                    <g id="Group" opacity="0.4" transform="translate(1666.000000, 120.000000)">
                        <g id="Group-2" fill="#9B9B9B">
                            <rect id="Rectangle" x="0" y="1" width="25.9509202" height="89.9932812" rx="7.2"></rect>
                            <rect id="Rectangle" transform="translate(45.000000, 78.018790) rotate(90.000000) translate(-45.000000, -78.018790) " x="32.0245399" y="33.0221491" width="25.9509202" height="89.9932812" rx="7.2"></rect>
                            <rect id="Rectangle" x="64.0490798" y="1" width="25.9509202" height="89.9932812" rx="7.2"></rect>
                            <rect id="Rectangle" transform="translate(45.000000, 13.974491) rotate(90.000000) translate(-45.000000, -13.974491) " x="32.0245399" y="-31.0221491" width="25.9509202" height="89.9932812" rx="7.2"></rect>
                        </g>
                        <rect id="Rectangle-3" fill="#FFFFFF" x="24.7826087" y="25.7807586" width="40.4347826" height="40.431764" rx="3.13016949"></rect>
                    </g>
                    <g id="Group" opacity="0.5" transform="translate(1071.000000, 0.000000)">
                        <g id="Group-2" fill="#9B9B9B">
                            <rect id="Rectangle" x="0" y="1" width="25.9509202" height="89.9932812" rx="7.2"></rect>
                            <rect id="Rectangle" transform="translate(45.000000, 78.018790) rotate(90.000000) translate(-45.000000, -78.018790) " x="32.0245399" y="33.0221491" width="25.9509202" height="89.9932812" rx="7.2"></rect>
                            <rect id="Rectangle" x="64.0490798" y="1" width="25.9509202" height="89.9932812" rx="7.2"></rect>
                            <rect id="Rectangle" transform="translate(45.000000, 13.974491) rotate(90.000000) translate(-45.000000, -13.974491) " x="32.0245399" y="-31.0221491" width="25.9509202" height="89.9932812" rx="7.2"></rect>
                        </g>
                        <rect id="Rectangle-3" fill="#FFFFFF" x="24.7826087" y="25.7807586" width="40.4347826" height="40.431764" rx="3.13016949"></rect>
                    </g>
                    <g id="Group" opacity="0.5" transform="translate(1190.000000, 0.000000)">
                        <g id="Group-2" fill="#9B9B9B">
                            <rect id="Rectangle" x="0" y="1" width="25.9509202" height="89.9932812" rx="7.2"></rect>
                            <rect id="Rectangle" transform="translate(45.000000, 78.018790) rotate(90.000000) translate(-45.000000, -78.018790) " x="32.0245399" y="33.0221491" width="25.9509202" height="89.9932812" rx="7.2"></rect>
                            <rect id="Rectangle" x="64.0490798" y="1" width="25.9509202" height="89.9932812" rx="7.2"></rect>
                            <rect id="Rectangle" transform="translate(45.000000, 13.974491) rotate(90.000000) translate(-45.000000, -13.974491) " x="32.0245399" y="-31.0221491" width="25.9509202" height="89.9932812" rx="7.2"></rect>
                        </g>
                        <rect id="Rectangle-3" fill="#FFFFFF" x="24.7826087" y="25.7807586" width="40.4347826" height="40.431764" rx="3.13016949"></rect>
                    </g>
                    <g id="Group" transform="translate(1547.000000, 0.000000)">
                        <g id="Group-2" fill="#4C4491">
                            <rect id="Rectangle" x="0" y="1" width="25.9509202" height="89.9932812" rx="7.2"></rect>
                            <rect id="Rectangle" transform="translate(45.000000, 78.018790) rotate(90.000000) translate(-45.000000, -78.018790) " x="32.0245399" y="33.0221491" width="25.9509202" height="89.9932812" rx="7.2"></rect>
                            <rect id="Rectangle" x="64.0490798" y="1" width="25.9509202" height="89.9932812" rx="7.2"></rect>
                            <rect id="Rectangle" transform="translate(45.000000, 13.974491) rotate(90.000000) translate(-45.000000, -13.974491) " x="32.0245399" y="-31.0221491" width="25.9509202" height="89.9932812" rx="7.2"></rect>
                        </g>
                        <rect id="Rectangle-3" fill="#FFFFFF" x="24.7826087" y="25.7807586" width="40.4347826" height="40.431764" rx="3.13016949"></rect>
                    </g>
                </g>
            </g>
        </g>
    </g>
</svg>